<?xml version="1.0" encoding="UTF-8"?>
<svg xmlns="http://www.w3.org/2000/svg" viewBox="0 0 2400 2400">
  <defs>
    <style>
      .cls-1 {
        fill: #fff;
      }

      .cls-2 {
        fill: #f0c9c0;
      }

      .cls-3 {
        fill: #f7d3c9;
      }

      .cls-4 {
        isolation: isolate;
      }

      .cls-5 {
        fill: #362e94;
      }

      .cls-6 {
        fill: #eb9d01;
      }

      .cls-7 {
        fill: #fcba06;
      }

      .cls-8 {
        fill: #f0ccc0;
      }

      .cls-9 {
        fill: #ffd03e;
      }

      .cls-10 {
        fill: #ced3f8;
      }

      .cls-11 {
        fill: #6b67e9;
      }

      .cls-12 {
        fill: #362e92;
      }

      .cls-13 {
        fill: #807df9;
      }

      .cls-14 {
        fill: #807dfb;
      }

      .cls-15 {
        fill: #5652cc;
      }

      .cls-16 {
        fill: #131147;
      }

      .cls-17 {
        fill: #423eaf;
      }

      .cls-18 {
        fill: #ed9f00;
      }

      .cls-19 {
        fill: #bbc0e6;
      }

      .cls-20 {
        fill: #dde2f8;
      }

      .cls-21 {
        fill: #dbe0f6;
      }

      .cls-22 {
        fill: #fab80a;
      }

      .cls-23 {
        fill: #423ead;
      }

      .cls-24 {
        fill: #e9edf7;
      }

      .cls-25 {
        fill: #df8f00;
      }

      .cls-26 {
        fill: #c2c8e7;
        mix-blend-mode: multiply;
      }
    </style>
  </defs>
  <g class="cls-4">
    <g id="Layer_2" data-name="Layer 2">
      <g id="Background">
        <rect class="cls-1" width="2400" height="2400"/>
      </g>
      <g id="Shadow">
        <ellipse class="cls-24" cx="1198.28" cy="2005.48" rx="484.31" ry="65.42"/>
      </g>
      <g id="Plants">
        <g>
          <path class="cls-14" d="M937.63,1486.06c-14.58,0-34.19-5.35-59.74-22.31-1.38-.92-1.76-2.78-.84-4.16,.92-1.38,2.78-1.76,4.16-.84,37.88,25.14,61.26,23.54,74.19,17.76,13.12-5.85,19.21-17.65,20.54-26.73,.21-1.44,1.42-2.52,2.87-2.56,12.71-.4,24.35-7.3,31.93-18.94,10.84-16.63,11.4-40.2,1.52-64.66-.62-1.54,.12-3.28,1.66-3.9,1.54-.62,3.29,.12,3.91,1.66,10.62,26.3,9.87,51.88-2.06,70.18-8.06,12.37-20.76,20.27-34.33,21.51-2.22,10.25-9.39,22.58-23.59,28.92-5.2,2.32-11.89,4.07-20.22,4.07Z"/>
          <path class="cls-14" d="M940.59,1468.73c-22.89,0-46.28-13.45-64.42-37.12-1.01-1.32-.76-3.2,.56-4.21,1.31-1,3.2-.76,4.21,.56,17.39,22.7,39.61,35.32,61.16,34.74,13.73-.4,25.17-6.34,32.23-16.74,.36-.54,.89-.94,1.5-1.15,10.12-3.5,19.27-13.62,23.89-26.4,7.21-19.96,3.16-44.21-11.42-68.3-.86-1.42-.4-3.26,1.01-4.12,1.42-.86,3.26-.4,4.12,1.01,15.53,25.67,19.77,51.75,11.93,73.45-5.08,14.06-15.23,25.34-26.64,29.69-8.11,11.38-21.33,18.12-36.45,18.56-.56,.02-1.12,.03-1.68,.03Z"/>
          <path class="cls-14" d="M954.08,1454.41c-4.3,0-8.75-.86-13.34-2.58-27.75-10.43-51.54-49.77-53.72-62.92-.27-1.63,.83-3.18,2.47-3.45,1.64-.3,3.18,.83,3.45,2.47,1.75,10.51,24.34,48.67,49.91,58.29,10.59,3.98,20.3,2.43,28.85-4.59,.3-.25,.66-.44,1.03-.55,5.14-1.56,9.39-6.91,11.97-15.06,6.51-20.57,1.92-57.14-19.41-84.38-1.02-1.3-.79-3.19,.51-4.21,1.3-1.02,3.19-.79,4.21,.51,22.59,28.86,27.38,67.85,20.41,89.89-3.16,9.97-8.46,16.46-15.37,18.81-6.49,5.18-13.51,7.78-20.98,7.78Z"/>
          <path class="cls-14" d="M973.61,1446.94c-.31,0-.61-.05-.91-.14-22.7-7.24-54.19-37.38-60.33-51.46-.66-1.52,.03-3.29,1.55-3.95,1.52-.66,3.29,.04,3.95,1.55,5.18,11.87,33.03,38.65,53.42,46.96,3.99-24.72,1.03-62.57-3.3-72.06-.69-1.51-.02-3.29,1.48-3.98,1.51-.68,3.29-.02,3.97,1.49,4.95,10.86,8.29,53.23,3.11,79.18-.17,.83-.68,1.56-1.42,2-.47,.28-.99,.42-1.52,.42Z"/>
          <path class="cls-14" d="M973.6,1446.94c-1.52,0-2.82-1.15-2.98-2.69-2.45-23.55-5.23-50.24-24.58-85.38-.8-1.45-.27-3.28,1.18-4.08,1.45-.79,3.28-.27,4.08,1.18,19.93,36.21,22.78,63.54,25.29,87.65,.17,1.65-1.03,3.12-2.67,3.29-.11,.01-.21,.02-.31,.02Z"/>
          <path class="cls-14" d="M972.96,1440.91c-.65,0-1.31-.21-1.86-.65-18.63-14.78-47.71-65.95-49.4-86.9-.13-1.65,1.1-3.1,2.75-3.23,1.65-.12,3.1,1.1,3.23,2.75,1.53,18.98,30.17,69.21,47.15,82.68,1.3,1.03,1.51,2.92,.48,4.22-.59,.74-1.47,1.13-2.35,1.13Z"/>
          <path class="cls-14" d="M1097.84,1606.81c-.75,0-1.49-.28-2.07-.83-37.87-36.18-111.85-136.64-119.61-154.57-.66-1.52,.04-3.29,1.56-3.95,1.52-.65,3.29,.04,3.94,1.56,7.64,17.64,80.76,116.79,118.26,152.62,1.2,1.14,1.24,3.04,.1,4.24-.59,.62-1.38,.93-2.17,.93Z"/>
        </g>
        <path class="cls-20" d="M1320.1,1853.66c5.67,18.66,176.91,84.78,191.7,52.85,11.52-24.86-14.6-37.63-24.44-41.53-15.51-6.14-53.77-18.45-47.42-29.21,11.5-19.47,104.3,24.03,127.56,33.23,23.26,9.2,70.94,20.75,93.38,4.56,22.44-16.19,29.68-25.34-11.92-39.18-41.6-13.84-126.93-30.89-99.31-47.12,27.63-16.23,90.79,12.41,133.01,15.53,42.22,3.12,123.65-5.27,107.58-32.65-14.37-24.49-139.09-15.85-131.05-36.17,6.43-16.26,41.05-5.7,96.77-6.64,55.72-.94,108.31-2.39,110.8-35.56,2-26.63-33.55-18.49-63.6-18.37-30.05,.12-71.91-1.29-61.81-15.05,10.1-13.76,157.09-.17,169.92-42.46,8.48-27.98-23.8-20.91-58.78-22.73-34.97-1.82-47.14-5.07-44.46-11.84,2.68-6.77,50.26-11.98,76.46-14.15,26.21-2.17,63.05-14.23,61.87-38.72-1.18-24.49-42.81-16.67-57.52-10.22-14.71,6.45-31.48,6.35-33.36,1.95-1.88-4.4,45.15-29.14,28.59-51.36-16.56-22.22-59.21,5.83-69.39,31.57-10.18,25.74-24.83,60.16-34.23,56.45-9.39-3.72,2.4-33.52,11.69-57,9.29-23.48,7.61-34.94,1.35-37.42-20.87-8.26-50.56,15.34-57.34,32.5-6.79,17.16-32.31,118.31-46.18,112.82-13.87-5.49-.29-42.42,7.21-61.39,7.5-18.97,25.01-63.22,1.75-72.43-23.26-9.2-59.37,45.46-71.42,82.47-12.06,37.01-27.05,98.46-37.78,94.21-10.73-4.25-7.01-55.52,2.11-78.55,9.11-23.03,37-59.53,8.37-70.85-28.63-11.32-48.35,21.54-66.24,66.76-7.47,18.89-25.5,65.85-19.65,97.5,6.66,36.04,4.07,55.08-4.24,57.04-16.54,3.9-18.17-28.6-14.07-52.05,4.1-23.45,21.24-95.53-15.97-95.63-37.21-.09-36.19,61.41-38.24,86.2s-1.64,112.68-20.87,112.91c-19.23,.23-7.09-46.15-4.86-60.94,2.23-14.79-2.93-46.86-15.76-41.23-12.83,5.63-90.34,148.6-80.22,181.88Z"/>
        <g>
          <path class="cls-11" d="M1043.18,1837.11c26.42-38.86,21.41-116.95-13.38-147.33-34.79-30.37-71.44-6.24-85.71-27.92-14.27-21.68-2.99-75.9-33.22-94.3-53.73-32.71-91.06,64.01-133.11,43.97-42.05-20.04-17.84-72.61-54.21-97.51-36.37-24.9-62.55,56.72-115.2,45.87s-168.59-13.49-162.09,53.62c5.14,53.04,64.2,20.28,79.8,37.19,17.79,19.28-3.96,44.79,20.3,61.74,34.28,23.96,75.08-13.54,99.96,10.78,24.89,24.31-.02,62.91,44.92,72.17,55.64,11.46,69.44-77.16,127.63-30.38,58.18,46.79-27.25,91.04,4.59,124.99,34.76,37.06,94.53-32.52,111.61-2.44,23.24,40.93,67.14,9.81,108.12-50.46Z"/>
          <path class="cls-14" d="M1049.32,1829.21c-.72,0-1.45-.26-2.02-.79-3.14-2.87-6.26-7.79-9.88-13.5-7.84-12.37-17.61-27.76-32.4-30.8-8.46-1.74-17.11-2.2-26.26-2.67-15.22-.8-30.95-1.62-46.17-8.77-30.82-14.47-44.86-37.4-57.25-57.63-9.01-14.72-16.8-27.44-29.36-34.09-10.44-5.53-17.91-2.29-27.37,1.8-9.85,4.26-21.01,9.1-37.94,5.61-16.47-3.39-22.43-10.3-28.2-16.98-5.98-6.93-12.16-14.09-31.94-18.16-16.76-3.45-25.61,.48-34.99,4.64-9.91,4.4-20.15,8.94-39.22,5.94-35.59-5.6-53.73-24.25-66.98-37.86-7.38-7.58-13.21-13.57-19.38-14.52-14.76-2.24-20.97,7.17-21.04,7.27-.89,1.4-2.75,1.81-4.14,.91-1.4-.89-1.81-2.75-.91-4.14,.34-.52,8.42-12.82,27-9.97,8.15,1.25,14.6,7.88,22.77,16.26,12.66,13.01,30,30.82,63.62,36.11,17.33,2.74,26.32-1.27,35.85-5.5,9.83-4.37,20-8.88,38.64-5.04,21.78,4.49,28.95,12.79,35.27,20.12,5.58,6.46,10.4,12.05,24.87,15.03,15.08,3.11,24.87-1.14,34.34-5.24,10.07-4.36,19.58-8.48,32.56-1.6,14.02,7.42,22.59,21.43,31.67,36.26,11.94,19.51,25.48,41.62,54.68,55.33,14.16,6.65,29.3,7.44,43.93,8.21,8.97,.47,18.25,.96,27.16,2.79,17.29,3.56,28.25,20.84,36.26,33.47,3.39,5.34,6.31,9.96,8.86,12.28,1.22,1.12,1.31,3.01,.19,4.24-.59,.65-1.4,.98-2.22,.98Z"/>
        </g>
      </g>
      <g id="Chain">
        <g>
          <path class="cls-22" d="M1398.26,380.25h-49.99c-13.96,0-27.1,5.43-36.97,15.31-9.87,9.87-15.31,23-15.31,36.96,0,13.97,5.44,27.1,15.32,36.97,9.87,9.88,23,15.31,36.96,15.31h49.99c13.96,0,27.1-5.44,36.97-15.31,9.88-9.87,15.31-23,15.31-36.97,0-28.83-23.45-52.28-52.28-52.28Zm34.04,52.27c0,9.1-3.54,17.65-9.97,24.07-6.43,6.43-14.97,9.97-24.06,9.97h-49.99c-9.09,0-17.64-3.54-24.07-9.97-6.43-6.42-9.97-14.97-9.97-24.06,0-9.09,3.54-17.64,9.97-24.07,6.43-6.43,14.98-9.97,24.07-9.97h49.98c18.77,0,34.04,15.27,34.05,34.03Z"/>
          <path class="cls-13" d="M1324.21,408.46c-2.44,2.44-4.46,5.19-6.03,8.15,2.53,4.75,3.97,10.17,3.97,15.92,0,9.09-3.54,17.64-9.97,24.07-6.43,6.43-14.98,9.97-24.07,9.97h-49.99c-9.09,0-17.63-3.54-24.07-9.97-6.43-6.43-9.97-14.98-9.97-24.07,0-18.77,15.27-34.04,34.04-34.04h49.98c6.19,0,11.98,1.67,16.99,4.56,1.82-2.65,3.89-5.16,6.21-7.49,2.14-2.14,4.44-4.05,6.86-5.77-8.51-6-18.88-9.55-30.06-9.55h-49.99c-28.83,0-52.28,23.45-52.29,52.28,0,13.96,5.44,27.09,15.31,36.97,9.88,9.87,23.01,15.31,36.97,15.31h49.98c13.97,0,27.09-5.43,36.97-15.31,9.88-9.88,15.32-23.01,15.32-36.97,0-10.94-3.38-21.08-9.14-29.48-2.54,1.47-4.91,3.28-7.04,5.41Z"/>
          <path class="cls-25" d="M1331.28,462.03c-1.82,2.65-3.89,5.15-6.21,7.47-2.14,2.14-4.45,4.07-6.88,5.79,2.28,1.62,4.68,3.04,7.17,4.25,2.42-2.37,4.64-5,6.6-7.86,1.61-2.35,3.02-4.8,4.21-7.33-1.69-.64-3.32-1.42-4.89-2.32Z"/>
          <path class="cls-26" d="M1330.61,412.27c1.53-.83,3.11-1.53,4.71-2.12-1.18-2.48-2.54-4.85-4.08-7.1-2.54,1.47-4.91,3.28-7.04,5.41-2.44,2.44-4.46,5.19-6.03,8.15,.76,1.43,1.41,2.93,1.97,4.48,2.82-3.58,6.35-6.59,10.47-8.83Z"/>
        </g>
      </g>
      <g id="Connectors">
        <path class="cls-10" d="M1518.15,1607.62h-214.65c-1.66,0-3-1.34-3-3s1.34-3,3-3h214.65c21.64,0,39.25-17.61,39.25-39.25v-177.69c0-1.66,1.34-3,3-3s3,1.34,3,3v177.69c0,24.96-20.3,45.25-45.25,45.25Z"/>
        <path class="cls-10" d="M1074.37,1607.62h-231.67c-24.96,0-45.26-20.3-45.26-45.25v-398.3c0-1.66,1.34-3,3-3s3,1.34,3,3v398.3c0,21.64,17.61,39.25,39.26,39.25h231.67c1.66,0,3,1.34,3,3s-1.34,3-3,3Z"/>
        <path class="cls-10" d="M800.44,1331.98h-216.25c-1.66,0-3-1.34-3-3s1.34-3,3-3h216.25c1.66,0,3,1.34,3,3s-1.34,3-3,3Z"/>
        <path class="cls-10" d="M1804.53,994.61h-492.73c-20.26,0-36.75-16.49-36.75-36.75v-31.32h-233.38c-1.66,0-3-1.34-3-3s1.34-3,3-3h236.38c1.66,0,3,1.34,3,3v34.32c0,16.96,13.8,30.75,30.75,30.75h492.73c1.66,0,3,1.34,3,3s-1.34,3-3,3Z"/>
        <path class="cls-10" d="M1278.05,926.53c-1.66,0-3-1.34-3-3v-150.79c0-20.26,16.49-36.75,36.75-36.75h121.82c1.66,0,3,1.34,3,3s-1.34,3-3,3h-121.82c-16.96,0-30.75,13.79-30.75,30.75v150.79c0,1.66-1.34,3-3,3Z"/>
        <path class="cls-10" d="M787.1,1328.98c0-7.37,5.98-13.35,13.35-13.35s13.35,5.98,13.35,13.35-5.98,13.35-13.35,13.35-13.35-5.98-13.35-13.35Z"/>
        <path class="cls-10" d="M1264.7,923.53c0-7.37,5.98-13.35,13.35-13.35s13.35,5.98,13.35,13.35-5.98,13.35-13.35,13.35-13.35-5.98-13.35-13.35Z"/>
      </g>
      <g id="Little_frame" data-name="Little frame">
        <rect class="cls-11" x="1409.93" y="632.05" width="311.43" height="213.9" rx="22.51" ry="22.51"/>
        <g>
          <path class="cls-12" d="M1615.22,715.58h-99.14c-2.48,0-4.5-2.01-4.5-4.5s2.02-4.5,4.5-4.5h99.14c2.48,0,4.5,2.01,4.5,4.5s-2.02,4.5-4.5,4.5Z"/>
          <path class="cls-12" d="M1537.73,793.06c-2.48,0-4.5-2.01-4.5-4.5v-99.13c0-2.49,2.02-4.5,4.5-4.5s4.5,2.01,4.5,4.5v99.13c0,2.49-2.02,4.5-4.5,4.5Z"/>
          <path class="cls-12" d="M1615.22,771.41h-99.14c-2.48,0-4.5-2.01-4.5-4.5s2.02-4.5,4.5-4.5h99.14c2.48,0,4.5,2.01,4.5,4.5s-2.02,4.5-4.5,4.5Z"/>
          <path class="cls-12" d="M1593.56,793.06c-2.48,0-4.5-2.01-4.5-4.5v-99.13c0-2.49,2.02-4.5,4.5-4.5s4.5,2.01,4.5,4.5v99.13c0,2.49-2.02,4.5-4.5,4.5Z"/>
        </g>
      </g>
      <g id="Little_frame-2" data-name="Little frame">
        <rect class="cls-14" x="386.09" y="1229.52" width="289.62" height="198.92" rx="20.93" ry="20.93"/>
        <g>
          <path class="cls-5" d="M474.09,1392.07c-10.56,0-19.15-8.6-19.15-19.15v-29.29c0-5.59-4.55-10.15-10.15-10.15-2.49,0-4.5-2.02-4.5-4.5,0-2.48,2.02-4.5,4.5-4.5h0c2.71,0,5.25-1.05,7.17-2.97,1.92-1.92,2.97-4.46,2.97-7.17v-29.29c0-10.56,8.59-19.15,19.15-19.15h9.76c2.49,0,4.5,2.02,4.5,4.5s-2.01,4.5-4.5,4.5h-9.76c-5.59,0-10.15,4.55-10.15,10.15v29.29c0,5.11-1.99,9.92-5.61,13.54-.39,.39-.8,.76-1.21,1.12,4.17,3.52,6.82,8.77,6.82,14.64v29.29c0,5.6,4.55,10.15,10.15,10.15h9.76s0,0,0,0c2.48,0,4.5,2.01,4.5,4.5,0,2.48-2.01,4.5-4.5,4.5h-9.76Z"/>
          <path class="cls-5" d="M587.7,1392.06h-9.76c-2.49,0-4.5-2.02-4.5-4.5s2.01-4.5,4.5-4.5h9.76c2.71,0,5.26-1.05,7.17-2.97,1.92-1.92,2.97-4.46,2.97-7.17v-29.29c0-5.11,1.99-9.92,5.61-13.54,.39-.39,.8-.76,1.21-1.11-4.17-3.52-6.82-8.77-6.82-14.64v-29.29c0-2.71-1.06-5.26-2.97-7.17-1.92-1.92-4.47-2.97-7.17-2.97h-9.77c-2.49,0-4.5-2.02-4.5-4.5,0-2.49,2.02-4.5,4.5-4.5h9.77c5.11,0,9.92,2,13.54,5.61,3.62,3.62,5.61,8.43,5.61,13.54v29.29c0,5.6,4.55,10.15,10.15,10.15,2.49,0,4.5,2.02,4.5,4.5s-2.01,4.5-4.5,4.5c-2.71,0-5.26,1.05-7.17,2.97-1.92,1.92-2.97,4.46-2.97,7.17v29.29c0,5.11-1.99,9.92-5.61,13.54-3.62,3.62-8.42,5.61-13.54,5.61Z"/>
          <circle class="cls-5" cx="553.96" cy="1328.98" r="6.53"/>
          <circle class="cls-5" cx="530.89" cy="1328.98" r="6.53"/>
          <circle class="cls-5" cx="507.83" cy="1328.98" r="6.53"/>
        </g>
      </g>
      <g id="Big_frame" data-name="Big frame">
        <rect class="cls-24" x="491.36" y="683" width="618.17" height="481.06" rx="20.93" ry="20.93"/>
        <g>
          <path class="cls-19" d="M1065.27,761.3c-1.15,0-2.3-.44-3.18-1.32l-33.87-33.87c-1.76-1.76-1.76-4.61,0-6.36,1.76-1.76,4.61-1.76,6.36,0l33.87,33.87c1.76,1.76,1.76,4.61,0,6.36-.88,.88-2.03,1.32-3.18,1.32Z"/>
          <path class="cls-19" d="M1031.4,761.3c-1.15,0-2.3-.44-3.18-1.32-1.76-1.76-1.76-4.61,0-6.36l33.87-33.87c1.76-1.76,4.61-1.76,6.36,0,1.76,1.76,1.76,4.61,0,6.36l-33.87,33.87c-.88,.88-2.03,1.32-3.18,1.32Z"/>
          <path class="cls-19" d="M993.36,761.3h-41.97c-2.49,0-4.5-2.01-4.5-4.5s2.01-4.5,4.5-4.5h41.97c2.49,0,4.5,2.01,4.5,4.5s-2.01,4.5-4.5,4.5Z"/>
          <path class="cls-1" d="M562.39,825.44h-18.46c-2.49,0-4.5-2.01-4.5-4.5s2.01-4.5,4.5-4.5h18.46c2.49,0,4.5,2.01,4.5,4.5s-2.01,4.5-4.5,4.5Z"/>
          <path class="cls-19" d="M932.38,825.44h-338.22c-2.49,0-4.5-2.01-4.5-4.5s2.01-4.5,4.5-4.5h338.22c2.49,0,4.5,2.01,4.5,4.5s-2.01,4.5-4.5,4.5Z"/>
          <path class="cls-1" d="M623.77,860.29h-18.46c-2.49,0-4.5-2.01-4.5-4.5s2.01-4.5,4.5-4.5h18.46c2.49,0,4.5,2.01,4.5,4.5s-2.01,4.5-4.5,4.5Z"/>
          <path class="cls-10" d="M826.85,860.29h-171.32c-2.49,0-4.5-2.01-4.5-4.5s2.01-4.5,4.5-4.5h171.32c2.49,0,4.5,2.01,4.5,4.5s-2.01,4.5-4.5,4.5Z"/>
          <path class="cls-10" d="M993.76,860.29h-139.58c-2.49,0-4.5-2.01-4.5-4.5s2.01-4.5,4.5-4.5h139.58c2.49,0,4.5,2.01,4.5,4.5s-2.01,4.5-4.5,4.5Z"/>
          <path class="cls-1" d="M623.77,895.14h-18.46c-2.49,0-4.5-2.01-4.5-4.5s2.01-4.5,4.5-4.5h18.46c2.49,0,4.5,2.01,4.5,4.5s-2.01,4.5-4.5,4.5Z"/>
          <path class="cls-19" d="M993.76,895.14h-338.22c-2.49,0-4.5-2.01-4.5-4.5s2.01-4.5,4.5-4.5h338.22c2.49,0,4.5,2.01,4.5,4.5s-2.01,4.5-4.5,4.5Z"/>
          <path class="cls-1" d="M623.77,929.99h-18.46c-2.49,0-4.5-2.01-4.5-4.5s2.01-4.5,4.5-4.5h18.46c2.49,0,4.5,2.01,4.5,4.5s-2.01,4.5-4.5,4.5Z"/>
          <path class="cls-19" d="M993.76,929.99h-338.22c-2.49,0-4.5-2.01-4.5-4.5s2.01-4.5,4.5-4.5h338.22c2.49,0,4.5,2.01,4.5,4.5s-2.01,4.5-4.5,4.5Z"/>
          <path class="cls-1" d="M705.74,964.84h-18.46c-2.49,0-4.5-2.01-4.5-4.5s2.01-4.5,4.5-4.5h18.46c2.49,0,4.5,2.01,4.5,4.5s-2.01,4.5-4.5,4.5Z"/>
          <path class="cls-10" d="M946.45,964.84h-208.95c-2.49,0-4.5-2.01-4.5-4.5s2.01-4.5,4.5-4.5h208.95c2.49,0,4.5,2.01,4.5,4.5s-2.01,4.5-4.5,4.5Z"/>
          <path class="cls-10" d="M1059.79,964.84h-79.66c-2.49,0-4.5-2.01-4.5-4.5s2.01-4.5,4.5-4.5h79.66c2.49,0,4.5,2.01,4.5,4.5s-2.01,4.5-4.5,4.5Z"/>
          <path class="cls-1" d="M705.74,999.69h-18.46c-2.49,0-4.5-2.01-4.5-4.5s2.01-4.5,4.5-4.5h18.46c2.49,0,4.5,2.01,4.5,4.5s-2.01,4.5-4.5,4.5Z"/>
          <path class="cls-19" d="M1059.79,999.69h-322.29c-2.49,0-4.5-2.01-4.5-4.5s2.01-4.5,4.5-4.5h322.29c2.49,0,4.5,2.01,4.5,4.5s-2.01,4.5-4.5,4.5Z"/>
          <path class="cls-1" d="M705.74,1034.54h-18.46c-2.49,0-4.5-2.01-4.5-4.5s2.01-4.5,4.5-4.5h18.46c2.49,0,4.5,2.01,4.5,4.5s-2.01,4.5-4.5,4.5Z"/>
          <path class="cls-19" d="M1059.79,1034.54h-322.29c-2.49,0-4.5-2.01-4.5-4.5s2.01-4.5,4.5-4.5h322.29c2.49,0,4.5,2.01,4.5,4.5s-2.01,4.5-4.5,4.5Z"/>
          <path class="cls-1" d="M562.39,1069.38h-18.46c-2.49,0-4.5-2.01-4.5-4.5s2.01-4.5,4.5-4.5h18.46c2.49,0,4.5,2.01,4.5,4.5s-2.01,4.5-4.5,4.5Z"/>
          <path class="cls-10" d="M891.98,1069.38h-297.83c-2.49,0-4.5-2.01-4.5-4.5s2.01-4.5,4.5-4.5h297.83c2.49,0,4.5,2.01,4.5,4.5s-2.01,4.5-4.5,4.5Z"/>
          <path class="cls-1" d="M562.39,1104.23h-18.46c-2.49,0-4.5-2.01-4.5-4.5s2.01-4.5,4.5-4.5h18.46c2.49,0,4.5,2.01,4.5,4.5s-2.01,4.5-4.5,4.5Z"/>
          <path class="cls-10" d="M932.38,1104.23h-338.22c-2.49,0-4.5-2.01-4.5-4.5s2.01-4.5,4.5-4.5h338.22c2.49,0,4.5,2.01,4.5,4.5s-2.01,4.5-4.5,4.5Z"/>
        </g>
        <g>
          <path class="cls-19" d="M543.93,756.8c0-5.1,4.13-9.23,9.23-9.23s9.23,4.13,9.23,9.23-4.13,9.23-9.23,9.23-9.23-4.13-9.23-9.23Z"/>
          <path class="cls-19" d="M575.7,756.8c0-5.1,4.13-9.23,9.23-9.23s9.23,4.13,9.23,9.23-4.13,9.23-9.23,9.23-9.23-4.13-9.23-9.23Z"/>
          <path class="cls-19" d="M607.46,756.8c0-5.1,4.13-9.23,9.23-9.23s9.23,4.13,9.23,9.23-4.13,9.23-9.23,9.23-9.23-4.13-9.23-9.23Z"/>
          <circle class="cls-19" cx="648.46" cy="756.8" r="9.23"/>
          <circle class="cls-19" cx="680.22" cy="756.8" r="9.23"/>
          <circle class="cls-19" cx="711.99" cy="756.8" r="9.23"/>
          <circle class="cls-19" cx="743.75" cy="756.8" r="9.23"/>
          <circle class="cls-19" cx="775.52" cy="756.8" r="9.23"/>
          <circle class="cls-19" cx="807.28" cy="756.8" r="9.23"/>
        </g>
      </g>
      <g id="Ruller">
        <g>
          <rect class="cls-22" x="668.34" y="511.28" width="584.74" height="100.47"/>
          <path class="cls-6" d="M701.11,574.89c-8.99,0-16.28-7.28-16.28-16.26s7.29-16.27,16.28-16.27c8.98,0,16.27,7.29,16.27,16.27s-7.29,16.27-16.27,16.26Z"/>
          <path class="cls-1" d="M701.11,567.01c-4.63,0-8.38-3.75-8.38-8.38,0-4.63,3.75-8.38,8.38-8.38s8.38,3.75,8.38,8.38c0,4.63-3.75,8.38-8.38,8.38Z"/>
          <path class="cls-23" d="M1096.32,598.57v13.19h7.54v-13.19c0-2.09-1.69-3.77-3.77-3.77-2.08,0-3.77,1.68-3.77,3.77Zm-27.32,0v13.19h7.54v-13.19c0-2.09-1.68-3.77-3.77-3.78-2.08,0-3.77,1.69-3.77,3.77Zm-378.75-3.77c-2.08,0-3.77,1.68-3.77,3.77v13.19h7.54v-13.19c0-2.09-1.69-3.77-3.77-3.77Zm351.43,3.77v13.19s7.54,0,7.54,0v-13.19c0-2.09-1.69-3.77-3.77-3.77-2.08,0-3.77,1.69-3.77,3.77Zm-81.97,0v13.19s7.54,0,7.54,0v-13.19c0-2.09-1.69-3.77-3.77-3.77s-3.77,1.68-3.77,3.77Zm-191.26,0v13.19h7.54v-13.19c0-2.09-1.69-3.77-3.77-3.77-2.08,0-3.77,1.68-3.77,3.77Zm54.64,0v13.19h7.53v-13.19c0-2.08-1.68-3.77-3.77-3.77s-3.77,1.68-3.77,3.77Zm191.26,0v13.19h7.54v-13.19c0-2.09-1.69-3.77-3.77-3.77-2.09,0-3.77,1.68-3.77,3.77Zm-273.22,0v13.19s7.54,0,7.54,0v-13.19c0-2.09-1.69-3.77-3.77-3.77-2.08,0-3.77,1.68-3.77,3.77Zm-27.32,0v13.19h7.54v-13.19c0-2.09-1.69-3.77-3.77-3.77-2.08,0-3.77,1.68-3.77,3.77Zm81.97,0v13.19h7.54v-13.19c0-2.09-1.69-3.77-3.77-3.77-2.08,0-3.77,1.68-3.77,3.77Zm54.64,0v13.19h7.54v-13.19c0-2.09-1.69-3.77-3.77-3.77-2.08,0-3.77,1.69-3.77,3.77Zm136.61,0v13.19h7.53v-13.19c0-2.08-1.69-3.77-3.77-3.77-2.08,0-3.77,1.68-3.77,3.77Zm140.39-3.77c-2.09,0-3.77,1.69-3.77,3.78v13.19h7.54v-13.19c0-2.09-1.69-3.77-3.77-3.77Zm27.32,0c-2.08,0-3.77,1.68-3.77,3.77v13.19h7.54s0-13.19,0-13.19c0-2.08-1.69-3.77-3.77-3.77Zm27.32,0c-2.08,0-3.77,1.69-3.77,3.77v13.19h7.54v-13.19c0-2.09-1.68-3.77-3.77-3.77Zm27.32,0c-2.08,0-3.77,1.69-3.77,3.77v13.19h7.54v-13.19c0-2.09-1.69-3.77-3.77-3.77Zm-277,3.77v13.19h7.54v-13.19c0-2.09-1.69-3.77-3.77-3.77-2.08,0-3.77,1.68-3.77,3.77Zm-27.32,0v13.19h7.54v-13.19c0-2.09-1.69-3.77-3.77-3.77-2.08,0-3.77,1.69-3.77,3.77Zm-27.33,0v13.19h7.55v-13.19c0-2.08-1.69-3.77-3.77-3.77s-3.77,1.68-3.77,3.77Z"/>
        </g>
      </g>
      <g id="Big_frame-2" data-name="Big frame">
        <rect class="cls-24" x="1528.05" y="810.56" width="569.66" height="402.07" rx="22.67" ry="22.67"/>
        <circle class="cls-7" cx="1574.99" cy="854.44" r="14.46"/>
        <path class="cls-15" d="M1603.88,854.44c0-7.99,6.47-14.46,14.46-14.46s14.46,6.47,14.46,14.46-6.47,14.46-14.46,14.46-14.46-6.47-14.46-14.46Z"/>
        <path class="cls-19" d="M1647.23,854.44c0-7.99,6.47-14.46,14.46-14.46s14.46,6.47,14.46,14.46-6.47,14.46-14.46,14.46-14.46-6.47-14.46-14.46Z"/>
        <g>
          <rect class="cls-21" x="1693.57" y="985.8" width="299.84" height="12.9"/>
          <path class="cls-23" d="M1604.58,896.64h-7.48c-2.48,0-4.5-2.01-4.5-4.5s2.02-4.5,4.5-4.5h7.48c2.48,0,4.5,2.01,4.5,4.5s-2.02,4.5-4.5,4.5Z"/>
          <path class="cls-13" d="M1946.92,896.64h-306.95c-2.48,0-4.5-2.01-4.5-4.5s2.02-4.5,4.5-4.5h306.95c2.48,0,4.5,2.01,4.5,4.5s-2.02,4.5-4.5,4.5Z"/>
          <path class="cls-23" d="M1709.82,923.28h-7.48c-2.48,0-4.5-2.01-4.5-4.5s2.02-4.5,4.5-4.5h7.48c2.48,0,4.5,2.01,4.5,4.5s-2.02,4.5-4.5,4.5Z"/>
          <path class="cls-18" d="M1948.96,923.28h-203.76c-2.48,0-4.5-2.01-4.5-4.5s2.02-4.5,4.5-4.5h203.76c2.48,0,4.5,2.01,4.5,4.5s-2.02,4.5-4.5,4.5Z"/>
          <path class="cls-23" d="M1709.82,949.92h-7.48c-2.48,0-4.5-2.01-4.5-4.5s2.02-4.5,4.5-4.5h7.48c2.48,0,4.5,2.01,4.5,4.5s-2.02,4.5-4.5,4.5Z"/>
          <path class="cls-23" d="M2017.47,949.92h-272.27c-2.48,0-4.5-2.01-4.5-4.5s2.02-4.5,4.5-4.5h272.27c2.48,0,4.5,2.01,4.5,4.5s-2.02,4.5-4.5,4.5Z"/>
          <path class="cls-23" d="M1709.82,1086.37h-7.48c-2.48,0-4.5-2.01-4.5-4.5s2.02-4.5,4.5-4.5h7.48c2.48,0,4.5,2.01,4.5,4.5s-2.02,4.5-4.5,4.5Z"/>
          <path class="cls-11" d="M1894.87,1086.37h-149.67c-2.48,0-4.5-2.01-4.5-4.5s2.02-4.5,4.5-4.5h149.67c2.48,0,4.5,2.01,4.5,4.5s-2.02,4.5-4.5,4.5Z"/>
          <path class="cls-23" d="M1709.82,1113.01h-7.48c-2.48,0-4.5-2.01-4.5-4.5s2.02-4.5,4.5-4.5h7.48c2.48,0,4.5,2.01,4.5,4.5s-2.02,4.5-4.5,4.5Z"/>
          <path class="cls-14" d="M1924.94,1113.01h-179.74c-2.48,0-4.5-2.01-4.5-4.5s2.02-4.5,4.5-4.5h179.74c2.48,0,4.5,2.01,4.5,4.5s-2.02,4.5-4.5,4.5Z"/>
          <path class="cls-23" d="M1658.19,976.56h-7.48c-2.48,0-4.5-2.01-4.5-4.5s2.02-4.5,4.5-4.5h7.48c2.48,0,4.5,2.01,4.5,4.5s-2.02,4.5-4.5,4.5Z"/>
          <path class="cls-23" d="M1728.44,976.56h-34.87c-2.48,0-4.5-2.01-4.5-4.5s2.02-4.5,4.5-4.5h34.87c2.48,0,4.5,2.01,4.5,4.5s-2.02,4.5-4.5,4.5Z"/>
          <path class="cls-23" d="M1658.19,1003.21h-7.48c-2.48,0-4.5-2.01-4.5-4.5s2.02-4.5,4.5-4.5h7.48c2.48,0,4.5,2.01,4.5,4.5s-2.02,4.5-4.5,4.5Z"/>
          <path class="cls-23" d="M1909.55,1003.21h-215.98c-2.48,0-4.5-2.01-4.5-4.5s2.02-4.5,4.5-4.5h215.98c2.48,0,4.5,2.01,4.5,4.5s-2.02,4.5-4.5,4.5Z"/>
          <path class="cls-23" d="M1993.41,1003.21h-64.77c-2.48,0-4.5-2.01-4.5-4.5s2.02-4.5,4.5-4.5h64.77c2.48,0,4.5,2.01,4.5,4.5s-2.02,4.5-4.5,4.5Z"/>
          <path class="cls-23" d="M1658.19,1030.13h-7.48c-2.48,0-4.5-2.01-4.5-4.5s2.02-4.5,4.5-4.5h7.48c2.48,0,4.5,2.01,4.5,4.5s-2.02,4.5-4.5,4.5Z"/>
          <path class="cls-23" d="M1783.42,1030.13h-89.85c-2.48,0-4.5-2.01-4.5-4.5s2.02-4.5,4.5-4.5h89.85c2.48,0,4.5,2.01,4.5,4.5s-2.02,4.5-4.5,4.5Z"/>
          <path class="cls-23" d="M1658.19,1057.05h-7.48c-2.48,0-4.5-2.01-4.5-4.5s2.02-4.5,4.5-4.5h7.48c2.48,0,4.5,2.01,4.5,4.5s-2.02,4.5-4.5,4.5Z"/>
          <path class="cls-23" d="M1968.5,1057.05h-274.92c-2.48,0-4.5-2.01-4.5-4.5s2.02-4.5,4.5-4.5h274.92c2.48,0,4.5,2.01,4.5,4.5s-2.02,4.5-4.5,4.5Z"/>
        </g>
      </g>
      <g id="Folder">
        <g>
          <path class="cls-22" d="M1489.83,1131.22l-42.43-46.4c-6.16-6.74-14.87-10.57-23.99-10.57h-68.38c-12.83,0-23.22,10.4-23.22,23.22v301.53c0,9.88,8.01,17.89,17.89,17.89h421.41c9.88,0,17.89-8.01,17.89-17.89v-244.55c0-12.83-10.4-23.22-23.22-23.22h-275.94Z"/>
          <rect class="cls-9" x="1465.88" y="1212.78" width="199.53" height="123.33"/>
        </g>
        <g>
          <path class="cls-1" d="M1541.55,1315.34c-.68,0-1.36-.15-2.01-.47-2.22-1.11-3.12-3.81-2.01-6.04l36.4-72.81c1.11-2.22,3.82-3.12,6.04-2.01,2.22,1.11,3.12,3.81,2.01,6.04l-36.4,72.81c-.79,1.58-2.38,2.49-4.03,2.49Z"/>
          <path class="cls-1" d="M1525.7,1302.58c-.88,0-1.77-.26-2.55-.79l-33.77-23.23c-1.22-.84-1.95-2.22-1.95-3.71s.73-2.87,1.95-3.71l33.77-23.24c2.04-1.41,4.85-.9,6.26,1.15,1.41,2.05,.89,4.85-1.15,6.26l-28.38,19.53,28.38,19.53c2.04,1.41,2.56,4.21,1.15,6.26-.87,1.27-2.28,1.95-3.71,1.95Z"/>
          <path class="cls-1" d="M1595.1,1302.58c-1.43,0-2.84-.68-3.71-1.95-1.41-2.05-.89-4.85,1.15-6.26l28.39-19.53-28.39-19.53c-2.05-1.41-2.56-4.21-1.15-6.26,1.41-2.05,4.21-2.56,6.26-1.15l33.77,23.24c1.22,.84,1.95,2.22,1.95,3.71s-.73,2.87-1.95,3.71l-33.77,23.23c-.78,.54-1.67,.79-2.55,.79Z"/>
        </g>
      </g>
      <g id="Woman">
        <g>
          <rect class="cls-16" x="1133.29" y="1398.37" width="128.72" height="143.66"/>
          <path class="cls-3" d="M1090.68,1665.83s-33.62-21.17-52.69-30.28c-16.7,31.41-28.32,67.53-34.05,91.5-11.36,47.5,65.26,144.76,65.26,144.76,0,0,10.61,8.02,27.82,18.89l-49.08-151.37s33.45-56.44,42.73-73.51Z"/>
          <path class="cls-3" d="M1291.32,1665.83s33.62-21.17,52.69-30.28c16.7,31.41,28.31,67.53,34.04,91.5,11.35,47.5-65.26,144.76-65.26,144.76,0,0-10.62,8.02-27.82,18.89l49.08-151.37s-33.45-56.44-42.73-73.51Z"/>
          <path class="cls-7" d="M1346.5,1640.3c-13.58-32.88-36.93-71.41-52.13-82.27-31.17-22.27-57.15-18.55-103.37-17.07-46.22-1.48-72.2-5.2-103.37,17.07-15.21,10.86-38.55,49.39-52.14,82.27,14.27,11.91,35.71,24.91,51.49,32.18,21.77,49.84,7.9,181.05,.08,225.14,0,0,18.03,35.46,103.93,35.46s103.93-35.46,103.93-35.46c-7.82-44.1-21.69-175.31,.08-225.14,15.78-7.26,37.21-20.26,51.49-32.18Z"/>
          <path class="cls-2" d="M1211.73,1503.15h-41.46c-1.78,22.44-10.31,36.77-26.27,36.77-20.22,47,27.78,73.59,47,73.59s73.51-11.73,47.01-73.59c-15.97,0-24.5-14.32-26.28-36.77Z"/>
          <path class="cls-3" d="M1237.6,1351.18c-10.39-8.59-27.07-11.31-46.61-11.31s-36.22,2.72-46.6,11.31c-19.39,16.05-24.5,59.97-16.91,89.55,16.18,63.06,34.07,79.13,63.52,79.13s47.33-16.07,63.52-79.13c7.59-29.57,2.48-73.5-16.91-89.55Z"/>
          <path class="cls-8" d="M1134.29,1426.74c-.84-8.35-5.94-14.67-11.37-14.12-5.44,.55-9.16,7.77-8.31,16.12,.84,8.35,5.94,14.67,11.37,14.12,5.44-.55,9.15-7.76,8.31-16.12Z"/>
        </g>
        <g>
          <path class="cls-24" d="M1011.47,1729.47l32.48,200.85h294.09l32.48-200.85c1.33-8.25-5.04-15.74-13.4-15.74h-332.26c-8.36,0-14.73,7.49-13.4,15.74Z"/>
          <polygon class="cls-10" points="1201.5 1810.41 1180.3 1810.41 1169.7 1823.19 1180.3 1835.97 1201.5 1835.97 1212.1 1823.19 1201.5 1810.41"/>
        </g>
        <g>
          <path class="cls-8" d="M1345.3,1981.66c3.65,2.14,8.76,4.28,12.42,2.28,16.24,9.32,18.51,31.59-2.83,36.23-3.07-2.12-6.92-3.42-12.26-3.42-3.42-10.9,2.67-35.09,2.67-35.09Z"/>
          <path class="cls-17" d="M1347.2,1976.2c-123.53-51.13-205.74-92.1-285.23-121.06-82.22-29.96-158.34-40.4-166.88-9.06-9.83,36.08,52.83,85.69,154.88,122.13,79.05,28.22,174.43,34.46,292.66,53.85,0-13.71,4.57-45.87,4.57-45.87Z"/>
          <path class="cls-5" d="M1492.59,2012.56c-1.86-16.33-11.05-27.77-30.98-36h6.23c9.97,0,33.02,14.91,33.02,36.51s-23.05,25.2-39.24,25.2c14.33-1.14,32.52-12.31,30.98-25.71Z"/>
          <path class="cls-14" d="M1354.89,2020.17c17.65-7.58,16.62-23.16,2.83-36.23,6.76-3.05,15.02-7.39,30.38-7.39h73.5c19.93,8.23,29.12,19.67,30.98,36,1.54,13.4-16.65,24.57-30.98,25.71-16.19,0-69.37-6.17-85.33-9.77-12.44-2.79-16.66-5.63-21.38-8.32Z"/>
          <path class="cls-1" d="M1386.39,2017.3c-.42,0-.85-.18-1.14-.53-.54-.63-.46-1.58,.17-2.12,5.37-4.57,4.42-15.79,.06-22.03-.47-.68-.31-1.61,.37-2.09,.67-.47,1.61-.31,2.09,.37,4.67,6.68,6.71,19.82-.57,26.03-.28,.24-.63,.36-.97,.36Z"/>
          <path class="cls-1" d="M1394.84,2019.32c-.46,0-.91-.21-1.21-.61-.49-.67-.35-1.61,.31-2.1,3.79-2.81,5-6.91,5.34-9.86,.68-5.89-1.35-11.79-3.71-14.58-.53-.63-.46-1.58,.18-2.12,.63-.53,1.58-.45,2.12,.18,3.29,3.89,5.1,10.83,4.4,16.87-.59,5.07-2.84,9.19-6.53,11.92-.27,.2-.58,.29-.89,.29Z"/>
          <path class="cls-1" d="M1408.47,2020.64c-.46,0-.91-.21-1.2-.61-.5-.67-.35-1.61,.31-2.1,3.71-2.75,4.83-6.88,5.12-9.86,.57-5.82-1.56-12.84-5.07-16.69-.56-.61-.51-1.56,.1-2.12,.62-.56,1.56-.51,2.12,.1,4.09,4.49,6.49,12.3,5.84,19-.5,5.15-2.69,9.29-6.32,11.98-.27,.2-.58,.3-.89,.3Z"/>
        </g>
        <g>
          <path class="cls-8" d="M1047.15,1981.66c-3.65,2.14-8.76,4.28-12.42,2.28-16.24,9.32-18.51,31.59,2.84,36.23,3.07-2.12,6.92-3.42,12.25-3.42,3.43-10.9-2.67-35.09-2.67-35.09Z"/>
          <path class="cls-15" d="M1045.25,1976.2c123.53-51.13,205.74-92.1,285.23-121.06,82.23-29.96,158.34-40.4,166.88-9.06,9.83,36.08-52.84,85.69-154.88,122.13-79.05,28.22-174.43,34.46-292.66,53.85,0-13.71-4.57-45.87-4.57-45.87Z"/>
          <path class="cls-5" d="M899.86,2012.56c1.87-16.33,11.05-27.77,30.99-36h-6.23c-9.96,0-33.01,14.91-33.01,36.51s23.05,25.2,39.24,25.2c-14.33-1.14-32.53-12.31-30.99-25.71Z"/>
          <path class="cls-14" d="M1037.57,2020.17c-17.65-7.58-16.63-23.16-2.84-36.23-6.76-3.05-15.02-7.39-30.38-7.39h-73.49c-19.94,8.23-29.12,19.67-30.99,36-1.54,13.4,16.66,24.57,30.99,25.71,16.19,0,69.37-6.17,85.33-9.77,12.45-2.79,16.67-5.63,21.39-8.32Z"/>
          <path class="cls-1" d="M1006.06,2017.3c-.34,0-.69-.12-.97-.36-7.29-6.21-5.25-19.34-.58-26.03,.47-.68,1.41-.84,2.09-.37,.68,.47,.84,1.41,.37,2.09-4.36,6.24-5.31,17.46,.06,22.03,.63,.54,.71,1.49,.17,2.12-.3,.35-.72,.53-1.14,.53Z"/>
          <path class="cls-1" d="M997.6,2019.32c-.31,0-.62-.1-.89-.3-3.68-2.72-5.94-6.84-6.53-11.91-.7-6.04,1.11-12.98,4.41-16.88,.53-.63,1.48-.71,2.12-.18,.63,.54,.71,1.48,.18,2.12-2.36,2.79-4.4,8.7-3.72,14.59,.34,2.94,1.54,7.04,5.33,9.85,.67,.49,.81,1.43,.31,2.1-.29,.4-.75,.61-1.21,.61Z"/>
          <path class="cls-1" d="M983.98,2020.64c-.31,0-.62-.1-.89-.3-3.63-2.69-5.81-6.83-6.32-11.97-.65-6.69,1.74-14.51,5.83-19,.56-.61,1.51-.66,2.12-.1,.61,.56,.66,1.51,.1,2.12-3.5,3.85-5.64,10.87-5.07,16.69,.29,2.98,1.42,7.11,5.12,9.86,.66,.49,.8,1.43,.31,2.1-.29,.4-.75,.61-1.21,.61Z"/>
        </g>
        <path class="cls-8" d="M1247.7,1426.74c.84-8.35,5.94-14.67,11.37-14.12,5.44,.55,9.16,7.77,8.31,16.12-.85,8.35-5.94,14.67-11.38,14.12-5.43-.55-9.15-7.76-8.3-16.12Z"/>
        <path class="cls-5" d="M1148.58,1380.6c-7.22,22.23-15.55,131.13,1.29,179.92-24.58-4.07-42.18-13.32-45.75-26.11-9.95-35.76-22.04-216.39,85.34-216.39s103.21,126.67,87.22,216.39c-4.48,25.13-30.82,30.19-44.3,28.85,10.8-38.83,21.4-124.32,22.93-139.44-58.35,10.28-106.73-43.22-106.73-43.22Z"/>
      </g>
      <g id="Secondary_shapes" data-name="Secondary shapes">
        <path class="cls-9" d="M1790.01,318.51l-33.64,6.83c-2.63,.53-4.78,2.43-5.63,4.98l-10.91,32.55c-.85,2.55-.28,5.35,1.49,7.36l22.74,25.72c1.78,2.01,4.49,2.92,7.12,2.39l33.64-6.83c2.63-.53,4.78-2.43,5.63-4.98l10.91-32.55c.85-2.55,.28-5.35-1.49-7.36l-22.74-25.72c-1.78-2.01-4.49-2.92-7.12-2.39Z"/>
        <path class="cls-9" d="M523.1,1821.23l16.3-32.03c1.88-3.7,6.41-5.17,10.1-3.29l32.02,16.3c3.7,1.88,5.17,6.41,3.29,10.1l-16.3,32.03c-1.88,3.7-6.41,5.17-10.11,3.29l-32.02-16.3c-3.7-1.88-5.17-6.41-3.29-10.1Z"/>
        <path class="cls-11" d="M321.56,701.33l7.57,52.87c.82,5.73,7.53,8.42,12.08,4.84l42-32.99c4.55-3.57,3.52-10.73-1.84-12.88l-49.57-19.88c-5.37-2.15-11.05,2.31-10.24,8.04Z"/>
        <path class="cls-11" d="M1966.13,1844.19l-29.54,44.49c-3.2,4.82,.02,11.29,5.79,11.66l53.3,3.34c5.77,.36,9.77-5.66,7.2-10.84l-23.76-47.83c-2.57-5.18-9.79-5.63-12.99-.81Z"/>
      </g>
    </g>
  </g>
</svg>