<?xml version="1.0" encoding="UTF-8"?>
<svg id="Layer_2" data-name="Layer 2" xmlns="http://www.w3.org/2000/svg" xmlns:xlink="http://www.w3.org/1999/xlink" viewBox="0 0 2796.68 2052.64">
  <defs>
    <style>
      .cls-1, .cls-2 {
        fill: #f9f9f9;
      }

      .cls-1, .cls-3 {
        fill-rule: evenodd;
      }

      .cls-4 {
        fill: #9672fb;
      }

      .cls-5 {
        clip-path: url(#clippath);
      }

      .cls-6 {
        fill: none;
      }

      .cls-7, .cls-3 {
        fill: #292929;
      }
    </style>
    <clipPath id="clippath">
      <rect class="cls-6" x="1785.01" y="1669.42" width="219.77" height="219.8"/>
    </clipPath>
  </defs>
  <g id="_Ðåæèì_èçîëÿöèè" data-name="Ðåæèì èçîëÿöèè">
    <g>
      <g>
        <circle class="cls-2" cx="450.85" cy="993.52" r="20.81"/>
        <path class="cls-7" d="M450.85,1015.34c-12.03,0-21.81-9.79-21.81-21.81s9.79-21.81,21.81-21.81,21.81,9.79,21.81,21.81-9.79,21.81-21.81,21.81Zm0-41.63c-10.92,0-19.81,8.89-19.81,19.81s8.89,19.81,19.81,19.81,19.81-8.89,19.81-19.81-8.89-19.81-19.81-19.81Z"/>
      </g>
      <g>
        <circle class="cls-2" cx="1117.29" cy="438.06" r="20.81" transform="translate(17.49 918.34) rotate(-45)"/>
        <path class="cls-7" d="M1117.29,459.87c-12.03,0-21.81-9.79-21.81-21.81s9.79-21.81,21.81-21.81,21.81,9.79,21.81,21.81-9.79,21.81-21.81,21.81Zm0-41.63c-10.92,0-19.81,8.89-19.81,19.81s8.89,19.81,19.81,19.81,19.81-8.89,19.81-19.81-8.89-19.81-19.81-19.81Z"/>
      </g>
      <g>
        <g>
          <g>
            <path class="cls-1" d="M2166.3,1390.16s-63.4-237.79,31.92-418.18c21.83-41.32,46.66-71.65,74.68-95.48,31.1-26.41,75.94-29.01,109.87-6.37,33.93,22.69,48.71,65.13,36.2,103.95-11.62,36.18-30.27,75.09-59.53,113.81-79.41,105.16-154.14,242.23-193.14,302.26Z"/>
            <path class="cls-7" d="M2166.3,1391.16c-.05,0-.1,0-.16-.01-.39-.06-.71-.35-.81-.73-.16-.6-15.92-60.49-19.82-141.66-2.29-47.68-.1-93.26,6.51-135.5,8.27-52.82,23.51-100.51,45.3-141.75,20.7-39.18,45.21-70.51,74.92-95.77,31.27-26.56,76.95-29.21,111.07-6.44,34.13,22.82,49.19,66.04,36.6,105.09-13.03,40.55-33.11,78.94-59.68,114.11-55.33,73.28-109.29,163.56-148.69,229.48-17.49,29.26-32.59,54.53-44.41,72.72-.19,.29-.5,.46-.84,.46Zm165.82-535.3c-20.97,0-41.88,7.21-58.58,21.4-29.51,25.1-53.86,56.23-74.44,95.18-49.12,92.97-55.17,201.5-51.59,276.17,3.46,72.23,16.34,127.55,19.2,139.07,11.61-18,26.26-42.51,43.13-70.74,39.42-65.96,93.41-156.3,148.81-229.66,26.44-34.99,46.42-73.18,59.38-113.51,12.31-38.21-2.42-80.48-35.81-102.81-15.16-10.12-32.65-15.1-50.09-15.1Z"/>
          </g>
          <path class="cls-7" d="M2182.11,1736.68c-.49,0-.91-.36-.99-.85-21.7-144.69-24.13-280.14-7.21-402.57,13.54-97.97,39.42-187.88,76.93-267.23,33.38-70.62,69.99-119.62,94.82-148.3,26.93-31.1,46.24-45.7,46.43-45.84,.44-.33,1.07-.24,1.4,.2,.33,.44,.24,1.07-.2,1.4-.76,.57-77.02,58.75-140.7,193.53-58.78,124.41-118.55,341.37-69.48,668.51,.08,.55-.29,1.06-.84,1.14-.05,0-.1,.01-.15,.01Z"/>
        </g>
        <g>
          <g>
            <path class="cls-1" d="M2106.05,1369.35s20.42-314.17-151.82-384.44c-3.77-1.55-8.03-1.36-11.67,.45-3.64,1.84-6.31,5.18-7.29,9.12-6.09,25.03-15.11,78.27,.31,133.38,21.23,75.93,143.93,201.93,170.47,241.48Z"/>
            <path class="cls-7" d="M2106.05,1370.35c-.33,0-.64-.16-.83-.44-7.5-11.19-23.15-29.82-41.27-51.39-48.14-57.31-114.07-135.8-129.33-190.38-15.32-54.72-6.78-107.38-.32-133.89,1.06-4.24,3.91-7.81,7.81-9.78,3.93-1.96,8.48-2.14,12.5-.48,39.5,16.11,72.09,46.44,96.88,90.15,19.79,34.9,34.67,78.36,44.23,129.17,16.26,86.45,11.38,165.33,11.33,166.12-.03,.43-.32,.79-.74,.9-.09,.02-.17,.03-.26,.03Zm-157.14-385.49c-2.02,0-4.04,.47-5.9,1.39-3.38,1.71-5.85,4.8-6.77,8.47-6.41,26.32-14.89,78.59,.31,132.87,15.14,54.16,83.62,135.69,128.93,189.63,17.6,20.95,31.75,37.8,39.73,49.13,.7-15.05,2.99-85.9-11.46-162.73-14.94-79.42-51.34-181.67-139.89-217.79-1.58-.65-3.26-.97-4.94-.97Z"/>
          </g>
          <path class="cls-7" d="M2152.39,1694s-.04,0-.06,0c-.55-.03-.97-.51-.94-1.06,9.19-154.43-43.34-321.68-89.03-434.78-49.52-122.6-101.9-209.77-102.42-210.63-.29-.47-.13-1.09,.34-1.37,.47-.29,1.09-.13,1.37,.34,.52,.87,52.97,88.15,102.55,210.89,29.12,72.09,51.58,142.13,66.74,208.18,18.96,82.59,26.51,159.13,22.44,227.5-.03,.53-.47,.94-1,.94Z"/>
        </g>
        <g>
          <path class="cls-3" d="M2324.89,1351.28s69.54-30.84,109.6-4.41c24.48,16.15,35.6,48.67,65.44,39.58,59.49-18.12,27.04-90.65,19.95-96l-120.91-15.37-74.08,76.19Z"/>
          <path class="cls-2" d="M2490.03,1389.02c-14.63,0-24.63-10.78-35.11-22.07-6.37-6.86-12.95-13.95-20.99-19.25-39.14-25.83-107.95,4.18-108.64,4.49l-4.73,2.1,78.03-80.26,121.67,15.46,.21,.16c4.48,3.37,19.41,33.76,14.68,60.49-3.3,18.67-15.05,31.2-34.94,37.26-3.65,1.11-7.03,1.61-10.19,1.61Zm-97.02-53.82c14.56,0,29.68,2.68,42.03,10.83,8.24,5.43,14.91,12.62,21.35,19.56,12.84,13.84,23.93,25.78,43.25,19.9,19.11-5.82,30.4-17.83,33.55-35.7,4.52-25.62-9.22-54.47-13.73-58.39l-120.13-15.27-70.39,72.4c6.61-2.57,19.92-7.29,35.53-10.37,8.48-1.67,18.37-2.98,28.54-2.98Z"/>
        </g>
        <g>
          <g>
            <path class="cls-1" d="M2218.38,1537.78s-41.34-134.41,58.75-270c39.38-53.38,101.26-66.02,149.9-51.46,57.46,17.18,96.69,78.44,96.69,78.44,0,0-102.61-37.64-168.62,85.78-57.28,107.15-136.72,157.23-136.72,157.23Z"/>
            <path class="cls-7" d="M2218.38,1538.78c-.12,0-.24-.02-.35-.06-.29-.11-.52-.35-.61-.64-.1-.34-10.36-34.35-8.2-84.49,1.99-46.26,15.25-116.15,67.1-186.4,18.5-25.08,43.4-42.92,71.99-51.57,25.6-7.75,53.66-7.84,79-.25,57.16,17.09,96.85,78.25,97.24,78.86,.23,.36,.21,.83-.06,1.16-.27,.34-.72,.46-1.12,.31-.26-.09-25.87-9.26-59.13-3.33-30.68,5.47-74.37,25.29-108.26,88.65-56.75,106.15-136.27,157.11-137.07,157.61-.16,.1-.35,.15-.53,.15Zm169.86-327c-36.95,0-79.31,14.57-110.31,56.59-51.53,69.81-64.72,139.25-66.71,185.21-1.92,44.37,5.93,75.99,7.75,82.62,9.88-6.6,82.44-57.34,135.25-156.12,15.13-28.29,33.46-50.43,54.49-65.81,16.85-12.33,35.45-20.36,55.28-23.88,27.4-4.86,49.71,.36,57.3,2.56-7.9-11.38-44.48-60.7-94.54-75.67-11.47-3.43-24.61-5.5-38.5-5.5Z"/>
          </g>
          <path class="cls-7" d="M2192.42,1767.01s-.09,0-.14,0c-.55-.07-.93-.58-.86-1.12,2.08-15.33,2.53-32.19,3.06-51.7,1.15-42.57,2.57-95.56,21.03-171.88,18.66-77.26,31.49-126.01,45.79-162.28,13.42-34.02,27.87-57.01,53.31-84.81,54.89-59.89,94.28-67.58,129.91-70.32,.56-.04,1.03,.37,1.07,.92s-.37,1.03-.92,1.07c-35.24,2.71-74.19,10.33-128.59,69.68-48.29,52.76-61.81,93.76-98.64,246.21-18.41,76.12-19.83,128.99-20.98,171.47-.53,19.57-.98,36.48-3.08,51.92-.07,.5-.5,.87-.99,.87Z"/>
        </g>
        <g>
          <g>
            <path class="cls-1" d="M2056.71,1487.47s-36.74-135.34-126.09-179.55c-89.35-44.21-86.09-36.95-84.88-18.06,1.21,18.92,5.8,94.31,67.46,150.91,61.67,56.63,143.51,46.7,143.51,46.7Z"/>
            <path class="cls-7" d="M2041.96,1489.12c-8.64,0-20.49-.57-34.04-2.79-25.83-4.22-63.36-15.42-95.39-44.84-26.19-24.04-45.23-54.22-56.58-89.71-9.07-28.34-10.55-51.69-11.19-61.66l-.13-1.92c-.41-6.03-.74-10.8,2.56-13,6.37-4.27,25.97,3.17,83.88,31.82,46.4,22.96,78.36,70.75,97,106.79,20.17,39,29.52,73.05,29.61,73.39,.08,.28,.03,.58-.14,.82-.16,.24-.42,.4-.71,.43-.11,.01-5.67,.66-14.87,.66Zm-190.13-213.1c-1.56,0-2.72,.29-3.54,.84-2.33,1.56-2.04,5.82-1.67,11.2l.13,1.93c4.94,77.61,39.23,124.43,67.13,150.03,31.65,29.07,68.75,40.15,94.3,44.33,23.96,3.92,42.53,2.67,47.25,2.24-1.8-6.22-11.14-37.07-29.16-71.9-18.5-35.77-50.19-83.17-96.09-105.88-47.4-23.45-69.43-32.79-78.34-32.79Z"/>
          </g>
          <g>
            <path class="cls-2" d="M1862.97,1300.03s66.53,36.99,196.1,190.04c51.24,60.52,53.46,108.9,69.31,138.51,15.25,28.55,49.79,25.04,53.15,55.72l-318.56-384.27Z"/>
            <path class="cls-7" d="M2181.53,1685.3c-.5,0-.94-.38-.99-.89-1.78-16.3-12.44-22.54-24.78-29.76-9.95-5.82-21.22-12.43-28.26-25.6-4.89-9.13-8.45-19.92-12.58-32.41-9.43-28.54-21.17-64.07-56.62-105.93-127.9-151.09-195.15-189.44-195.82-189.81-.48-.27-.66-.88-.39-1.36,.27-.48,.88-.66,1.36-.39,.67,.37,68.17,38.83,196.37,190.27,35.69,42.15,47.5,77.88,56.99,106.59,4.1,12.4,7.64,23.11,12.45,32.09,6.77,12.67,17.31,18.84,27.5,24.81,12.27,7.19,23.87,13.98,25.76,31.27,.06,.55-.34,1.04-.89,1.1-.04,0-.07,0-.11,0Z"/>
          </g>
        </g>
        <g>
          <path class="cls-3" d="M2045.09,1630.72h242.74v420.92h-242.74v-420.92Z"/>
          <path class="cls-2" d="M2288.82,2052.64h-244.74v-422.92h244.74v422.92Zm-242.74-2h240.74v-418.92h-240.74v418.92Z"/>
        </g>
        <g>
          <rect class="cls-2" x="2031.84" y="1609.19" width="265.05" height="53.71"/>
          <path class="cls-7" d="M2296.9,1663.9h-265.05c-.55,0-1-.45-1-1v-53.71c0-.55,.45-1,1-1h265.05c.55,0,1,.45,1,1v53.71c0,.55-.45,1-1,1Zm-264.05-2h263.05v-51.71h-263.05v51.71Z"/>
        </g>
      </g>
      <g>
        <rect class="cls-2" x="1521.43" y="121.08" width="1017.76" height="591.53"/>
        <path class="cls-7" d="M2539.19,713.6h-1017.75c-.55,0-1-.45-1-1V121.08c0-.55,.45-1,1-1h1017.75c.55,0,1,.45,1,1V712.6c0,.55-.45,1-1,1Zm-1016.75-2h1015.75V122.08h-1015.75V711.6Z"/>
      </g>
      <g>
        <path class="cls-7" d="M1467.7,205.51c-31.32,2.31-65.19,29.96-69.94,87.26-6.78,81.97-86.32,137.23-39.2,220.09,35.81,62.97,167.52,42.12,193.49,24.44,25.98-17.68,26.06-271.87,22.37-274.84l-106.73-56.96Z"/>
        <g>
          <polygon class="cls-2" points="1590.46 365.68 1587.74 531.79 1474.51 527.45 1474.82 478.22 1475.23 411.37 1475.38 388.8 1590.46 365.68"/>
          <path class="cls-7" d="M1587.74,532.83s-.03,0-.04,0l-113.23-4.35c-.56-.02-1-.48-.99-1.04l.86-138.65c0-.49,.35-.91,.83-1.01l115.08-23.12c.31-.06,.62,.02,.87,.22,.24,.2,.38,.5,.37,.81l-2.72,166.12c0,.28-.12,.54-.32,.73-.19,.18-.45,.28-.71,.28Zm-112.19-6.38l111.17,4.27,2.68-163.78-113,22.71-.85,136.8Z"/>
        </g>
        <path class="cls-2" d="M1435,226.55s-37.68,27.45-23.09,161.92c15.53,143.21,162.41,7.34,162.41,7.34,0,0,30.86-129.3,6.84-150.96-24.02-21.65-96.17-59.21-146.15-18.3Z"/>
        <path class="cls-7" d="M1437.3,369.55c-.24,0-.48-.08-.68-.26-3.78-3.31-8.12-9.2-9.67-13.13-1.06-2.69-.57-5.73,1.27-7.94l11.64-11.74-1.89-24.16c-.04-.57,.38-1.07,.95-1.11,.56-.05,1.07,.38,1.11,.95l1.93,24.63c.02,.3-.08,.6-.3,.81l-11.92,12.01c-1.3,1.56-1.66,3.81-.88,5.8,1.42,3.61,5.59,9.26,9.1,12.33,.43,.38,.47,1.03,.1,1.46-.2,.23-.49,.35-.78,.35Z"/>
        <path class="cls-7" d="M1485.89,325.51c0,4.79-2.35,8.67-5.26,8.67s-5.26-3.88-5.26-8.67,2.35-8.67,5.26-8.67,5.26,3.88,5.26,8.67Z"/>
        <path class="cls-7" d="M1426.53,325.51c0,4.79-2.35,8.67-5.26,8.67s-5.26-3.88-5.26-8.67,2.35-8.67,5.26-8.67,5.26,3.88,5.26,8.67Z"/>
        <path class="cls-7" d="M1501.73,303.52c-.14,0-.28-.03-.42-.09-18.59-8.22-37.44-4.32-37.63-4.28-.55,.12-1.11-.23-1.23-.79-.12-.56,.23-1.11,.79-1.23,.79-.17,19.68-4.1,38.9,4.41,.52,.23,.76,.84,.53,1.36-.17,.39-.55,.62-.95,.62Z"/>
        <path class="cls-7" d="M1415.62,301c-.4,0-.78-.23-.95-.62-.23-.52,0-1.13,.53-1.36,4.26-1.89,14.23-1.91,14.65-1.91,.57,0,1.03,.46,1.03,1.03s-.46,1.03-1.03,1.03c-.1,0-9.95,.02-13.82,1.73-.14,.06-.28,.09-.42,.09Z"/>
        <path class="cls-7" d="M1434.96,217.63s-19.35,82.33,135.1,111.28l20.4,59.56s12.8-56.73,12.8-112.04-77.32-104.62-168.29-58.8Z"/>
        <path class="cls-7" d="M1581.4,229.71s35.73,30.04,67.7,102.58c12.42,28.19,27.92,48.82,42.26,69.01,41.59,58.57,76.91,167.95-5.98,193.56-30.09,9.3-42.46,44.52-60.29,40.31-68.3-16.14-1.22-102.45-26.47-112.9-25.24-10.45-28.55-168.23-28.55-168.23l11.33-124.33Z"/>
        <g>
          <path class="cls-2" d="M1544.86,323.35s32.17-36.63,54.5-12.49c25.81,27.91-8.15,61.55-29.93,56.18-21.78-5.37-24.57-43.69-24.57-43.69Z"/>
          <path class="cls-7" d="M1595.26,346.62c-.13,0-.27-.03-.4-.08-.53-.22-.77-.83-.55-1.36,3.9-9.23,4.32-16.72,1.23-22.26-3.74-6.7-11.62-8.84-15.98-9.51-6.78-1.05-12.41,4.09-12.47,4.14-.42,.39-1.07,.36-1.46-.05-.39-.42-.37-1.07,.05-1.46,.26-.24,6.4-5.87,14.19-4.67,4.74,.73,13.31,3.08,17.47,10.55,3.41,6.12,3.03,14.22-1.13,24.07-.17,.4-.55,.63-.95,.63Z"/>
          <g>
            <path class="cls-2" d="M1577.03,341.21l21.42-7-21.42,7Z"/>
            <path class="cls-7" d="M1577.03,342.25c-.44,0-.84-.28-.98-.71-.18-.54,.12-1.13,.66-1.3l21.41-7c.54-.18,1.13,.12,1.3,.66,.18,.54-.12,1.13-.66,1.3l-21.42,7c-.11,.04-.21,.05-.32,.05Z"/>
          </g>
        </g>
        <path class="cls-7" d="M1474.47,354.17c-4.14,0-8.33-1.08-12.14-3.34-11.29-6.72-15.01-21.36-8.3-32.66,3.25-5.47,8.44-9.34,14.61-10.91,6.17-1.57,12.58-.64,18.05,2.61,11.29,6.71,15.01,21.36,8.3,32.66-4.45,7.48-12.38,11.64-20.52,11.64Zm.08-45.59c-1.8,0-3.61,.22-5.4,.68-5.63,1.43-10.37,4.97-13.34,9.97-6.13,10.31-2.73,23.69,7.58,29.82,5,2.97,10.85,3.82,16.48,2.39,5.63-1.43,10.37-4.97,13.34-9.97,6.13-10.31,2.73-23.69-7.58-29.82-3.41-2.03-7.22-3.07-11.08-3.07Z"/>
        <path class="cls-7" d="M1409.63,352.73c-4.14,0-8.33-1.08-12.14-3.34-5.47-3.25-9.35-8.44-10.91-14.61-1.57-6.17-.64-12.58,2.61-18.05,3.25-5.47,8.44-9.34,14.61-10.91,6.16-1.57,12.58-.64,18.05,2.61,11.29,6.72,15.01,21.37,8.3,32.66-4.45,7.48-12.38,11.64-20.52,11.64Zm.08-45.58c-1.8,0-3.61,.22-5.4,.68-5.63,1.43-10.37,4.97-13.34,9.97h0c-2.97,4.99-3.82,10.85-2.39,16.48,1.43,5.63,4.97,10.37,9.96,13.34,10.31,6.13,23.69,2.73,29.82-7.58,6.13-10.31,2.73-23.69-7.58-29.82-3.41-2.03-7.22-3.07-11.08-3.07Zm-19.63,10.12h0Z"/>
        <g>
          <path class="cls-7" d="M1440.9,393.19c-.57,0-1.03-.46-1.03-1.03s.46-1.03,1.03-1.03c.22,0,22.29-.18,37.39-13.87,.42-.38,1.08-.35,1.46,.07,.38,.42,.35,1.08-.07,1.46-15.71,14.24-37.85,14.41-38.78,14.41Z"/>
          <path class="cls-7" d="M1460.3,398.66c-4.33,0-9.19-2.04-14.52-6.09-.23-.17-.37-.43-.4-.71-.01-.1-.93-9.8,10.74-11.94,10.95-2.01,19.19-.07,19.53,.01,.54,.13,.88,.66,.77,1.2-.1,.54-2.61,13.26-11.55,16.7-1.45,.56-2.97,.83-4.57,.83Zm-12.89-7.45c6.53,4.86,12.15,6.43,16.71,4.69,6.52-2.5,9.27-11.19,10.03-14.16-2.49-.44-9.32-1.32-17.67,.21-8.53,1.57-9.09,7.58-9.08,9.26Z"/>
        </g>
        <g>
          <path class="cls-2" d="M1470.46,454.08s41.29-10.15,67.91-30.18l-67.91,30.18Z"/>
          <path class="cls-7" d="M1470.46,455.12c-.46,0-.89-.32-1-.79-.14-.55,.2-1.11,.76-1.25,.41-.1,41.4-10.33,67.53-30,.46-.34,1.11-.25,1.45,.2,.34,.46,.25,1.11-.2,1.45-26.48,19.93-67.87,30.25-68.28,30.36-.08,.02-.17,.03-.25,.03Z"/>
        </g>
      </g>
      <g>
        <g>
          <rect class="cls-2" x="500.02" y="1291.23" width="1590.39" height="760.41"/>
          <path class="cls-7" d="M2090.41,2052.64H500.02c-.55,0-1-.45-1-1v-760.41c0-.55,.45-1,1-1h1590.39c.55,0,1,.45,1,1v760.41c0,.55-.45,1-1,1Zm-1589.39-2h1588.39v-758.41H501.02v758.41Z"/>
        </g>
        <path class="cls-7" d="M2090.41,1406.54H500.02c-.55,0-1-.45-1-1s.45-1,1-1h1590.39c.55,0,1,.45,1,1s-.45,1-1,1Z"/>
        <g>
          <circle class="cls-2" cx="2032.11" cy="1347.12" r="25.94" transform="translate(-360.84 880.2) rotate(-22.5)"/>
          <path class="cls-7" d="M2032.11,1374.06c-14.86,0-26.95-12.09-26.95-26.94s12.09-26.94,26.95-26.94,26.94,12.09,26.94,26.94-12.09,26.94-26.94,26.94Zm0-51.89c-13.75,0-24.95,11.19-24.95,24.94s11.19,24.94,24.95,24.94,24.94-11.19,24.94-24.94-11.19-24.94-24.94-24.94Z"/>
        </g>
        <g>
          <circle class="cls-2" cx="1955.94" cy="1347.12" r="25.94" transform="translate(195.47 2941.23) rotate(-76.72)"/>
          <path class="cls-7" d="M1955.93,1374.06c-14.86,0-26.94-12.09-26.94-26.94s12.09-26.94,26.94-26.94,26.95,12.09,26.95,26.94-12.09,26.94-26.95,26.94Zm0-51.89c-13.75,0-24.94,11.19-24.94,24.94s11.19,24.94,24.94,24.94,24.95-11.19,24.95-24.94-11.19-24.94-24.95-24.94Z"/>
        </g>
        <g>
          <circle class="cls-2" cx="1879.76" cy="1347.12" r="25.94" transform="translate(-401.99 1723.76) rotate(-45)"/>
          <path class="cls-7" d="M1879.76,1374.06c-14.86,0-26.94-12.09-26.94-26.94s12.09-26.94,26.94-26.94,26.94,12.09,26.94,26.94-12.09,26.94-26.94,26.94Zm0-51.89c-13.75,0-24.94,11.19-24.94,24.94s11.19,24.94,24.94,24.94,24.94-11.19,24.94-24.94-11.19-24.94-24.94-24.94Z"/>
        </g>
        <g>
          <rect class="cls-4" x="1699.31" y="1589.77" width="219.77" height="219.8"/>
          <g>
            <rect class="cls-2" x="1742.16" y="1629.59" width="219.77" height="219.8"/>
            <path class="cls-7" d="M1961.92,1850.39h-219.77c-.55,0-1-.45-1-1v-219.8c0-.55,.45-1,1-1h219.77c.55,0,1,.45,1,1v219.8c0,.55-.45,1-1,1Zm-218.77-2h217.77v-217.8h-217.77v217.8Z"/>
          </g>
          <g class="cls-5">
            <rect class="cls-2" x="1785.01" y="1669.42" width="219.77" height="219.8"/>
            <g>
              <path class="cls-2" d="M1768.98,1856.48l224.39-203.29-224.39,203.29Z"/>
              <path class="cls-7" d="M1768.98,1857.48c-.27,0-.54-.11-.74-.33-.37-.41-.34-1.04,.07-1.41l224.38-203.29c.41-.37,1.04-.34,1.41,.07,.37,.41,.34,1.04-.07,1.41l-224.38,203.29c-.19,.17-.43,.26-.67,.26Z"/>
            </g>
            <g>
              <g>
                <path class="cls-2" d="M1694.18,1794.41l224.39-203.29-224.39,203.29Z"/>
                <path class="cls-7" d="M1694.18,1795.41c-.27,0-.54-.11-.74-.33-.37-.41-.34-1.04,.07-1.41l224.39-203.29c.41-.37,1.04-.34,1.41,.07s.34,1.04-.07,1.41l-224.39,203.29c-.19,.17-.43,.26-.67,.26Z"/>
              </g>
              <g>
                <path class="cls-2" d="M1719.11,1812.67l224.39-203.29-224.39,203.29Z"/>
                <path class="cls-7" d="M1719.11,1813.67c-.27,0-.54-.11-.74-.33-.37-.41-.34-1.04,.07-1.41l224.39-203.29c.41-.37,1.04-.34,1.41,.07,.37,.41,.34,1.04-.07,1.41l-224.39,203.29c-.19,.17-.43,.26-.67,.26Z"/>
              </g>
              <g>
                <path class="cls-2" d="M1744.05,1833.76l224.38-203.29-224.38,203.29Z"/>
                <path class="cls-7" d="M1744.05,1834.76c-.27,0-.54-.11-.74-.33-.37-.41-.34-1.04,.07-1.41l224.38-203.29c.41-.37,1.04-.34,1.41,.07,.37,.41,.34,1.04-.07,1.41l-224.38,203.29c-.19,.17-.43,.26-.67,.26Z"/>
              </g>
              <g>
                <path class="cls-2" d="M1768.98,1906.56l249.32-225.88-249.32,225.88Z"/>
                <path class="cls-7" d="M1768.98,1907.56c-.27,0-.54-.11-.74-.33-.37-.41-.34-1.04,.07-1.41l249.32-225.88c.41-.37,1.04-.34,1.41,.07,.37,.41,.34,1.04-.07,1.41l-249.32,225.88c-.19,.17-.43,.26-.67,.26Z"/>
              </g>
              <g>
                <path class="cls-2" d="M1818.85,1910.32l224.39-203.29-224.39,203.29Z"/>
                <path class="cls-7" d="M1818.85,1911.32c-.27,0-.54-.11-.74-.33-.37-.41-.34-1.04,.07-1.41l224.38-203.29c.41-.37,1.04-.34,1.41,.07,.37,.41,.34,1.04-.07,1.41l-224.38,203.29c-.19,.17-.43,.26-.67,.26Z"/>
              </g>
              <g>
                <path class="cls-2" d="M1843.79,1938.42l224.39-203.29-224.39,203.29Z"/>
                <path class="cls-7" d="M1843.79,1939.42c-.27,0-.54-.11-.74-.33-.37-.41-.34-1.04,.07-1.41l224.38-203.29c.41-.37,1.04-.34,1.41,.07,.37,.41,.34,1.04-.07,1.41l-224.38,203.29c-.19,.17-.43,.26-.67,.26Z"/>
              </g>
              <g>
                <path class="cls-2" d="M1868.72,1968.95l224.39-203.29-224.39,203.29Z"/>
                <path class="cls-7" d="M1868.72,1969.95c-.27,0-.54-.11-.74-.33-.37-.41-.34-1.04,.07-1.41l224.38-203.29c.41-.37,1.04-.34,1.41,.07s.34,1.04-.07,1.41l-224.38,203.29c-.19,.17-.43,.26-.67,.26Z"/>
              </g>
            </g>
          </g>
          <path class="cls-7" d="M2004.77,1890.21h-219.77c-.55,0-1-.45-1-1v-219.8c0-.55,.45-1,1-1h219.77c.55,0,1,.45,1,1v219.8c0,.55-.45,1-1,1Zm-218.77-2h217.77v-217.8h-217.77v217.8Z"/>
        </g>
        <g>
          <g>
            <rect class="cls-2" x="583.64" y="1478.31" width="357.65" height="248.08" rx="25.85" ry="25.85"/>
            <path class="cls-7" d="M915.44,1727.39h-305.94c-14.81,0-26.85-12.05-26.85-26.85v-196.38c0-14.81,12.05-26.85,26.85-26.85h305.94c14.81,0,26.85,12.05,26.85,26.85v196.38c0,14.81-12.05,26.85-26.85,26.85Zm-305.94-248.08c-13.7,0-24.85,11.15-24.85,24.85v196.38c0,13.7,11.15,24.85,24.85,24.85h305.94c13.7,0,24.85-11.15,24.85-24.85v-196.38c0-13.7-11.15-24.85-24.85-24.85h-305.94Z"/>
          </g>
          <g>
            <circle class="cls-2" cx="660.73" cy="1540.73" r="37.7" transform="translate(-990.58 1829.8) rotate(-76.72)"/>
            <path class="cls-7" d="M660.73,1579.42c-21.34,0-38.7-17.36-38.7-38.7s17.36-38.7,38.7-38.7,38.7,17.36,38.7,38.7-17.36,38.7-38.7,38.7Zm0-75.39c-20.24,0-36.7,16.46-36.7,36.7s16.46,36.7,36.7,36.7,36.7-16.46,36.7-36.7-16.46-36.7-36.7-36.7Z"/>
          </g>
          <g>
            <g>
              <path class="cls-2" d="M904.73,1536.2h-174.44c-3.56,0-6.45-2.89-6.45-6.45h0c0-3.56,2.89-6.45,6.45-6.45h174.44c3.56,0,6.45,2.89,6.45,6.45h0c0,3.56-2.89,6.45-6.45,6.45Z"/>
              <path class="cls-7" d="M904.73,1537.2h-174.44c-4.11,0-7.45-3.34-7.45-7.45s3.34-7.45,7.45-7.45h174.44c4.11,0,7.45,3.34,7.45,7.45s-3.34,7.45-7.45,7.45Zm-174.44-12.9c-3.01,0-5.45,2.45-5.45,5.45s2.45,5.45,5.45,5.45h174.44c3.01,0,5.45-2.45,5.45-5.45s-2.45-5.45-5.45-5.45h-174.44Z"/>
            </g>
            <g>
              <path class="cls-2" d="M811.06,1561.67h-80.77c-3.56,0-6.45-2.89-6.45-6.45h0c0-3.56,2.89-6.45,6.45-6.45h80.77c3.56,0,6.45,2.89,6.45,6.45h0c0,3.56-2.89,6.45-6.45,6.45Z"/>
              <path class="cls-7" d="M811.06,1562.67h-80.77c-4.11,0-7.45-3.34-7.45-7.45s3.34-7.45,7.45-7.45h80.77c4.11,0,7.45,3.34,7.45,7.45s-3.34,7.45-7.45,7.45Zm-80.77-12.9c-3.01,0-5.45,2.45-5.45,5.45s2.45,5.45,5.45,5.45h80.77c3.01,0,5.45-2.45,5.45-5.45s-2.45-5.45-5.45-5.45h-80.77Z"/>
            </g>
          </g>
          <g>
            <g>
              <circle class="cls-2" cx="877.06" cy="1663.46" r="37.7" transform="translate(-255.13 161.97) rotate(-9.22)"/>
              <path class="cls-7" d="M877.06,1702.15c-21.34,0-38.7-17.36-38.7-38.7s17.36-38.7,38.7-38.7,38.7,17.36,38.7,38.7-17.36,38.7-38.7,38.7Zm0-75.39c-20.23,0-36.7,16.46-36.7,36.7s16.46,36.7,36.7,36.7,36.7-16.46,36.7-36.7-16.46-36.7-36.7-36.7Z"/>
            </g>
            <g>
              <g>
                <path class="cls-2" d="M633.06,1658.93h174.44c3.56,0,6.45-2.89,6.45-6.45h0c0-3.56-2.89-6.45-6.45-6.45h-174.44c-3.56,0-6.45,2.89-6.45,6.45h0c0,3.56,2.89,6.45,6.45,6.45Z"/>
                <path class="cls-7" d="M807.5,1659.93h-174.44c-4.11,0-7.45-3.34-7.45-7.45s3.34-7.45,7.45-7.45h174.44c4.11,0,7.45,3.34,7.45,7.45s-3.34,7.45-7.45,7.45Zm-174.44-12.9c-3.01,0-5.45,2.45-5.45,5.45s2.45,5.45,5.45,5.45h174.44c3.01,0,5.45-2.45,5.45-5.45s-2.45-5.45-5.45-5.45h-174.44Z"/>
              </g>
              <g>
                <rect class="cls-2" x="720.28" y="1671.5" width="93.67" height="12.9" rx="6.45" ry="6.45"/>
                <path class="cls-7" d="M807.5,1685.4h-80.77c-4.11,0-7.45-3.34-7.45-7.45s3.34-7.45,7.45-7.45h80.77c4.11,0,7.45,3.34,7.45,7.45s-3.34,7.45-7.45,7.45Zm-80.77-12.9c-3.01,0-5.45,2.45-5.45,5.45s2.45,5.45,5.45,5.45h80.77c3.01,0,5.45-2.45,5.45-5.45s-2.45-5.45-5.45-5.45h-80.77Z"/>
              </g>
            </g>
          </g>
          <path class="cls-7" d="M941.29,1603.35h-357.65c-.55,0-1-.45-1-1s.45-1,1-1h357.65c.55,0,1,.45,1,1s-.45,1-1,1Z"/>
        </g>
        <g>
          <g>
            <rect class="cls-2" x="985.37" y="1478.8" width="268.64" height="247.75" transform="translate(-5.92 4.15) rotate(-.21)"/>
            <path class="cls-7" d="M985.87,1728.05c-.55,0-1-.45-1-1l-1-247.75c0-.27,.1-.52,.29-.71,.19-.19,.44-.29,.71-.3l268.63-.99h0c.55,0,1,.45,1,1l1,247.75c0,.27-.1,.52-.29,.71-.19,.19-.44,.29-.71,.3l-268.63,.99h0Zm0-247.75l.99,245.75,266.63-.99-.99-245.75-266.63,.99Z"/>
          </g>
          <g>
            <path class="cls-2" d="M985.01,1517.13l268.63-.99-268.63,.99Z"/>
            <path class="cls-7" d="M985.01,1518.13c-.55,0-1-.45-1-1,0-.55,.44-1,1-1l268.63-.99h0c.55,0,1,.45,1,1,0,.55-.44,1-1,1l-268.63,.99h0Z"/>
          </g>
          <g>
            <g>
              <path class="cls-2" d="M1006.11,1687.36l226.55-.84s-15.77-61.08-42.77-65.27c-33.62-5.22-47.95,32.41-70.09,15.31-22.15-17.09-33.14-65.3-59.31-64.73-35.61,.79-54.37,115.52-54.37,115.52Z"/>
              <path class="cls-7" d="M1006.11,1688.36c-.29,0-.57-.13-.76-.35-.19-.22-.27-.52-.23-.81,.77-4.72,19.31-115.56,55.34-116.36,.17,0,.34,0,.5,0,15.95,0,26.03,16.88,36.7,34.75,6.88,11.53,14,23.44,22.74,30.19,10.97,8.47,19.76,2.93,30.89-4.07,10.43-6.56,22.25-14,38.74-11.44,27.34,4.24,42.93,63.49,43.59,66.01,.08,.3,.01,.62-.18,.86-.19,.24-.48,.39-.79,.39l-226.55,.84h0Zm54.84-115.53c-.15,0-.3,0-.45,0-32.48,.72-51.1,101.46-53.21,113.52l224.05-.83c-2.43-8.67-17.67-59.57-41.62-63.29-15.75-2.44-27.24,4.78-37.37,11.15-11.32,7.13-21.1,13.28-33.18,3.96-9.04-6.98-16.26-19.06-23.24-30.75-10.37-17.36-20.17-33.77-35-33.77Z"/>
            </g>
            <g>
              <circle class="cls-2" cx="1148.56" cy="1573.91" r="17.74" transform="translate(-721.59 2120.63) rotate(-70.18)"/>
              <path class="cls-7" d="M1148.56,1592.65c-4.98,0-9.66-1.93-13.2-5.44-3.55-3.53-5.52-8.23-5.54-13.23-.04-10.33,8.34-18.77,18.67-18.81,4.96-.03,9.72,1.91,13.27,5.44,3.55,3.53,5.52,8.23,5.54,13.23h0c.02,5.01-1.91,9.72-5.44,13.27-3.53,3.55-8.23,5.52-13.23,5.54h-.07Zm0-35.48h-.06c-9.23,.03-16.71,7.57-16.68,16.8,.02,4.47,1.77,8.67,4.95,11.82,3.16,3.13,7.34,4.86,11.79,4.86h.06c4.47-.02,8.67-1.77,11.82-4.95s4.88-7.38,4.86-11.85h0c-.02-4.47-1.77-8.67-4.95-11.82-3.16-3.13-7.34-4.86-11.79-4.86Z"/>
            </g>
          </g>
        </g>
        <g>
          <polygon class="cls-4" points="1632.84 1973.36 1305.92 1973.36 1305.92 1479.52 1632.84 1478.31 1632.84 1973.36"/>
          <g>
            <g>
              <circle class="cls-2" cx="1470.79" cy="1591.65" r="41.91" transform="translate(-694.68 1506.19) rotate(-45)"/>
              <path class="cls-7" d="M1470.78,1634.55c-11.4,0-22.13-4.42-30.22-12.46-8.13-8.07-12.64-18.83-12.68-30.29-.04-11.46,4.38-22.25,12.45-30.39,8.07-8.13,18.83-12.64,30.29-12.68,.05,0,.11,0,.16,0,23.59,0,42.82,19.14,42.9,42.75h0c.09,23.66-19.09,42.98-42.75,43.06-.05,0-.11,0-.16,0Zm0-83.81c-.05,0-.1,0-.15,0-10.93,.04-21.18,4.33-28.88,12.09-7.7,7.75-11.91,18.04-11.87,28.97,.04,10.93,4.33,21.18,12.09,28.88,7.75,7.7,18.04,11.91,28.97,11.87,22.56-.08,40.84-18.5,40.75-41.06h0c-.08-22.5-18.42-40.75-40.9-40.75Z"/>
            </g>
            <g>
              <polygon class="cls-2" points="1494.11 1592.11 1460.77 1610.78 1461.27 1572.58 1494.11 1592.11"/>
              <path class="cls-7" d="M1460.77,1611.78c-.18,0-.35-.05-.51-.14-.31-.18-.49-.52-.49-.87l.5-38.2c0-.36,.2-.68,.51-.86,.31-.17,.69-.17,1,.01l32.84,19.53c.31,.18,.49,.52,.49,.87,0,.36-.2,.68-.51,.86l-33.33,18.67c-.15,.08-.32,.13-.49,.13Zm1.47-37.46l-.45,34.74,30.31-16.98-29.86-17.76Z"/>
            </g>
          </g>
          <g>
            <g>
              <g>
                <polygon class="cls-2" points="1367.77 1935.21 1575.67 1936.27 1576.33 1687.85 1368.43 1686.8 1367.77 1935.21"/>
                <path class="cls-7" d="M1575.67,1937.27h0l-207.9-1.06c-.55,0-1-.45-1-1l.66-248.41c0-.27,.11-.52,.3-.71,.19-.19,.48-.27,.71-.29l207.9,1.06c.55,0,1,.45,1,1l-.66,248.41c0,.27-.11,.52-.3,.71-.19,.19-.44,.29-.7,.29Zm-206.89-3.05l205.9,1.05,.65-246.41-205.9-1.05-.65,246.41Z"/>
              </g>
              <g>
                <path class="cls-2" d="M1576.29,1731.62l-207.9-1.06,207.9,1.06Z"/>
                <path class="cls-7" d="M1576.29,1732.62h0l-207.9-1.06c-.55,0-1-.45-1-1,0-.55,.45-1,1-1h0l207.9,1.06c.55,0,1,.45,1,1,0,.55-.45,1-1,1Z"/>
              </g>
              <g>
                <g>
                  <path class="cls-2" d="M1401.31,1702.15l-15.61,15.59,15.61-15.59Z"/>
                  <path class="cls-7" d="M1385.7,1718.74c-.26,0-.51-.1-.71-.29-.39-.39-.39-1.02,0-1.41l15.61-15.59c.39-.39,1.02-.39,1.42,0,.39,.39,.39,1.02,0,1.41l-15.61,15.59c-.2,.19-.45,.29-.71,.29Z"/>
                </g>
                <g>
                  <path class="cls-2" d="M1385.71,1702.14l15.59,15.61-15.59-15.61Z"/>
                  <path class="cls-7" d="M1401.3,1718.75c-.26,0-.51-.1-.71-.29l-15.59-15.61c-.39-.39-.39-1.02,0-1.41,.39-.39,1.02-.39,1.42,0l15.59,15.61c.39,.39,.39,1.02,0,1.41-.2,.19-.45,.29-.71,.29Z"/>
                </g>
              </g>
            </g>
            <g>
              <circle class="cls-4" cx="1472.12" cy="1825.9" r="66.23" transform="translate(-481.65 528.27) rotate(-17.53)"/>
              <g>
                <g>
                  <path class="cls-2" d="M1434.34,1863.88l75.92-.36c-.1-20.96-17.18-37.88-38.14-37.78-20.96,.1-37.88,17.18-37.78,38.14Z"/>
                  <path class="cls-7" d="M1434.34,1864.88c-.26,0-.52-.1-.7-.29-.19-.19-.29-.44-.3-.71-.05-10.4,3.96-20.21,11.28-27.6,7.32-7.39,17.09-11.49,27.49-11.54,.06,0,.13,0,.19,0,21.4,0,38.86,17.35,38.96,38.77,0,.55-.44,1-1,1l-75.92,.36h0Zm37.96-38.14c-.06,0-.12,0-.18,0-20.04,.1-36.33,16.21-36.77,36.13l73.89-.35c-.62-19.85-16.98-35.78-36.94-35.78Z"/>
                </g>
                <g>
                  <path class="cls-2" d="M1454.83,1805.37c.05,9.49,7.78,17.16,17.27,17.11,9.49-.05,17.16-7.78,17.11-17.27-.05-9.49-7.78-17.16-17.27-17.11-9.49,.05-17.16,7.78-17.11,17.27Z"/>
                  <path class="cls-7" d="M1472.02,1823.48c-9.99,0-18.14-8.1-18.19-18.11-.02-4.86,1.85-9.44,5.27-12.89,3.42-3.45,7.98-5.37,12.84-5.39,4.84,.01,9.44,1.85,12.89,5.27,3.45,3.42,5.37,7.98,5.39,12.84,.05,10.03-8.07,18.23-18.11,18.28h-.09Zm0-34.38h-.08c-4.33,.02-8.38,1.72-11.43,4.8-3.04,3.07-4.71,7.15-4.69,11.47h0c.04,8.9,7.3,16.12,16.19,16.12h.08c8.93-.04,16.16-7.34,16.12-16.27-.02-4.33-1.72-8.38-4.8-11.43-3.05-3.02-7.1-4.69-11.39-4.69Z"/>
                </g>
              </g>
            </g>
          </g>
        </g>
        <g>
          <g>
            <g>
              <polygon class="cls-2" points="583.58 1814.81 793.31 1815.12 794.09 1931.58 583.58 1931.58 583.58 1814.81"/>
              <path class="cls-7" d="M794.09,1932.58h-210.52c-.55,0-1-.45-1-1v-116.77c0-.27,.11-.52,.29-.71s.44-.29,.71-.29h0l209.74,.31c.55,0,.99,.44,1,.99l.78,116.46c0,.27-.1,.52-.29,.71-.19,.19-.44,.3-.71,.3Zm-209.52-2h208.51l-.77-114.46-207.74-.31v114.76Z"/>
            </g>
            <g>
              <path class="cls-2" d="M583.58,1815.47l106.89,54.7,101.79-54.03-208.68-.67Z"/>
              <path class="cls-7" d="M690.47,1871.17c-.16,0-.31-.04-.45-.11l-106.89-54.7c-.49-.25-.69-.85-.44-1.35,.25-.49,.86-.69,1.35-.43l106.43,54.46,101.33-53.79c.49-.26,1.09-.07,1.35,.41,.26,.49,.07,1.09-.41,1.35l-101.79,54.03c-.15,.08-.31,.12-.47,.12Z"/>
            </g>
          </g>
          <g>
            <path class="cls-1" d="M1243.95,1843.09h-404.98c-5.35,0-9.7-4.34-9.7-9.7h0c0-5.35,4.34-9.7,9.7-9.7h404.98c5.35,0,9.7,4.34,9.7,9.7h0c0,5.35-4.34,9.7-9.7,9.7Z"/>
            <path class="cls-7" d="M1243.95,1844.09h-404.98c-5.9,0-10.7-4.8-10.7-10.69s4.8-10.7,10.7-10.7h404.98c5.9,0,10.7,4.8,10.7,10.7s-4.8,10.69-10.7,10.69Zm-404.98-19.39c-4.79,0-8.7,3.9-8.7,8.7s3.9,8.69,8.7,8.69h404.98c4.79,0,8.7-3.9,8.7-8.69s-3.9-8.7-8.7-8.7h-404.98Z"/>
          </g>
          <g>
            <path class="cls-1" d="M1102.63,1882.16h-263.65c-5.35,0-9.7-4.34-9.7-9.7h0c0-5.35,4.34-9.7,9.7-9.7h263.65c5.35,0,9.7,4.34,9.7,9.7h0c0,5.35-4.34,9.7-9.7,9.7Z"/>
            <path class="cls-7" d="M1102.63,1883.16h-263.65c-5.9,0-10.7-4.8-10.7-10.69s4.8-10.7,10.7-10.7h263.65c5.9,0,10.7,4.8,10.7,10.7s-4.8,10.69-10.7,10.69Zm-263.65-19.39c-4.79,0-8.7,3.9-8.7,8.7s3.9,8.69,8.7,8.69h263.65c4.79,0,8.7-3.9,8.7-8.69s-3.9-8.7-8.7-8.7h-263.65Z"/>
          </g>
          <g>
            <path class="cls-1" d="M1189.6,1921.9h-350.63c-5.35,0-9.7-4.34-9.7-9.7h0c0-5.35,4.34-9.7,9.7-9.7h350.63c5.35,0,9.7,4.34,9.7,9.7h0c0,5.35-4.34,9.7-9.7,9.7Z"/>
            <path class="cls-7" d="M1189.6,1922.9h-350.63c-5.9,0-10.7-4.8-10.7-10.7s4.8-10.7,10.7-10.7h350.63c5.9,0,10.7,4.8,10.7,10.7s-4.8,10.7-10.7,10.7Zm-350.63-19.39c-4.79,0-8.7,3.9-8.7,8.7s3.9,8.7,8.7,8.7h350.63c4.79,0,8.7-3.9,8.7-8.7s-3.9-8.7-8.7-8.7h-350.63Z"/>
          </g>
        </g>
      </g>
      <g>
        <g>
          <g>
            <g>
              <g>
                <path class="cls-2" d="M818.66,931.16c13.06,5.7,68.46,20.39,73.18,19.94l11.68,51.64s50.11-.5,99.08-3.87l1.13-.07c8.76-.62,70.96-12.16,79.3-12.98-2.97-12.63-62.04-17.78-69.59-34.64-6.14-13.65-12.73-25.93-18.97-35.75-4.52-7.07,5.01-9.88,1.15-13.97-1.86-.19-17.31-3.41-18.51-3.73-.2-.04-.4-.11-.6-.15-2.97-.82-5.97-1.65-9.01-2.56-54.59-16.23-81.49-25.44-91.04-20.62-3.4,1.71-7.06,6.6,1.58,12.33,17.65,11.67,55.9,27.44,36.69,30.69-28.62,4.85-96.6-10.38-105.32-6.54-8.72,3.84-3.81,14.62,9.25,20.29Z"/>
                <path class="cls-7" d="M903.52,1003.74c-.47,0-.87-.32-.98-.78l-11.5-50.88c-8.67-.74-59.76-14.32-72.78-20-8.5-3.69-14.22-9.82-14.23-15.26,0-3.01,1.76-5.44,4.98-6.86,4.03-1.78,18.66,.1,37.18,2.48,23.3,2.99,52.29,6.71,68.38,3.99,3.79-.64,4.35-1.62,4.42-2.01,.54-3.23-12.97-10.64-23.82-16.6-6.29-3.45-12.79-7.02-17.67-10.25-4-2.65-5.94-5.44-5.77-8.28,.16-2.74,2.33-4.78,4.29-5.77,8.68-4.38,29.89,1.99,72.16,14.69,6.1,1.83,12.63,3.79,19.62,5.87,2.95,.88,5.89,1.69,8.74,2.48l.25,.07c.06,.01,.17,.04,.29,.07,.09,.02,.18,.05,.26,.07,1.16,.31,16.52,3.52,18.39,3.71,.24,.02,.46,.13,.63,.31,2.31,2.45,.82,4.74-.38,6.58-1.42,2.19-2.76,4.25-.66,7.54,6.51,10.24,13.09,22.65,19.04,35.88,3.8,8.47,22.23,14.15,38.49,19.16,15.9,4.9,29.63,9.13,31.17,15.66,.07,.28,0,.58-.16,.81-.17,.23-.43,.39-.72,.41-3.76,.37-18.77,2.97-34.66,5.73-19.59,3.4-39.84,6.91-44.67,7.25l-1.13,.07c-48.43,3.34-98.63,3.87-99.13,3.88h0Zm-11.67-53.64c.46,0,.87,.32,.97,.78l11.5,50.85c6.66-.08,53.2-.76,98.21-3.86l1.13-.07c4.72-.33,25.83-3.99,44.46-7.23,14.49-2.51,28.26-4.9,33.51-5.59-2.78-4.94-16.29-9.1-29.38-13.14-17.48-5.39-35.56-10.96-39.72-20.25-5.91-13.14-12.45-25.46-18.9-35.62-2.8-4.37-.79-7.46,.67-9.71,1.26-1.93,1.67-2.79,.82-3.86-3.13-.47-17.14-3.41-18.26-3.71-.07-.02-.19-.05-.3-.08-.09-.02-.17-.05-.26-.07l-.3-.08c-2.86-.79-5.81-1.61-8.78-2.49-6.99-2.08-13.52-4.04-19.62-5.87-40.44-12.14-62.71-18.84-70.68-14.81-1.47,.74-3.09,2.21-3.2,4.1-.12,2.05,1.57,4.3,4.88,6.5,4.82,3.18,11.28,6.73,17.53,10.16,15.88,8.72,25.58,14.29,24.83,18.69-.41,2.43-3.65,3.25-6.06,3.65-16.37,2.78-45.53-.97-68.96-3.98-16.76-2.15-32.59-4.18-36.12-2.63-2.48,1.09-3.79,2.83-3.79,5.02,.01,4.58,5.37,10.11,13.03,13.44,0,0,0,0,0,0,12.94,5.65,68.07,20.31,72.69,19.86,.03,0,.06,0,.09,0Z"/>
              </g>
              <g>
                <path class="cls-1" d="M902.15,975.04s-65.64-12-88.27-24.63c-27.36-15.26-23.84-32.99-.45-26.11s79.31,22.43,79.31,22.43l9.42,28.31Z"/>
                <path class="cls-7" d="M902.15,976.04c-.06,0-.12,0-.18-.02-2.69-.49-66.07-12.18-88.58-24.74-16.54-9.23-21.58-18.99-19.24-24.57,2.1-5.01,9.6-6.3,19.56-3.36,23.12,6.8,78.73,22.27,79.29,22.42,.32,.09,.58,.33,.68,.65l9.42,28.31c.11,.34,.04,.7-.19,.97-.19,.22-.47,.34-.75,.34Zm-98-52.24c-4.18,0-7.14,1.26-8.16,3.69-1.93,4.61,2.99,13.47,18.37,22.05,20.22,11.28,75.94,22.23,86.3,24.21l-8.71-26.19c-5.69-1.58-56.87-15.83-78.81-22.29-3.35-.99-6.4-1.47-8.99-1.47Z"/>
              </g>
              <g>
                <path class="cls-1" d="M903.75,992.11s-56.14-6.92-74.14-15.61c-17.99-8.69-35.01-26.54-22.01-31.97l92.52,24.42,3.76,24.59-.13-1.42Z"/>
                <path class="cls-7" d="M903.88,994.52c-.49,0-.91-.36-.99-.85l-.1-.68c-7.33-.93-56.66-7.41-73.61-15.6-13.24-6.39-27.38-18.59-27.15-27.15,.06-2.07,1-4.9,5.19-6.65,.2-.08,.43-.1,.64-.04l92.52,24.42c.39,.1,.67,.42,.73,.82l3.49,22.78c.08,.13,.13,.28,.15,.44l.13,1.42c.05,.54-.34,1.02-.87,1.09-.04,0-.08,0-.12,0Zm-96.2-48.95c-2.4,1.08-3.6,2.63-3.65,4.72-.18,6.81,11.73,18.4,26.02,25.29,16.07,7.76,63.65,14.2,72.43,15.34l-3.24-21.2-91.55-24.16Z"/>
              </g>
              <g>
                <path class="cls-1" d="M903.53,1002.74s-60.04-.42-73.49-14.73c-13.44-14.3,15-19.83,15-19.83l61.02,14.3-2.53,20.26Z"/>
                <path class="cls-7" d="M903.53,1003.74h0c-2.47-.02-60.63-.59-74.21-15.04-3.37-3.58-4.55-7.02-3.52-10.21,2.58-7.99,18.39-11.15,19.06-11.29,.14-.03,.28-.02,.42,0l61.02,14.3c.5,.12,.83,.59,.76,1.1l-2.53,20.26c-.06,.5-.49,.88-.99,.88Zm-58.5-34.53c-1.83,.39-15.26,3.46-17.33,9.9-.79,2.45,.25,5.22,3.08,8.23,12.12,12.89,64.4,14.27,71.88,14.4l2.31-18.48-59.93-14.05Z"/>
              </g>
              <g>
                <path class="cls-2" d="M823.23,932.72c12.27,4.67,33.46,10.58,69.87,16.48,.51,.08,.98-.26,1.06-.77,.08-.51-.26-.98-.77-1.06-75.78-12.26-85.01-24.72-85.09-24.85-.28-.42-.85-.54-1.28-.26-.42,.27-.55,.83-.29,1.26,.18,.28,2.69,3.95,16.49,9.21Z"/>
                <path class="cls-7" d="M893.25,950.21c-.1,0-.2,0-.31-.02-30.74-4.97-54.31-10.53-70.07-16.53h0c-13.71-5.22-16.56-8.92-16.99-9.61-.56-.9-.3-2.05,.59-2.63,.88-.57,2.06-.33,2.65,.54,.07,.09,10.23,12.41,84.43,24.42,.5,.08,.95,.35,1.25,.77,.3,.42,.42,.93,.34,1.44-.15,.95-.97,1.62-1.9,1.62Z"/>
              </g>
              <g>
                <path class="cls-2" d="M833.77,960.12c14.55,5.54,34.16,10.89,57.55,12.16,.51,.03,.95-.36,.98-.87s-.36-.95-.87-.98c-51.56-2.81-84.55-25.6-84.87-25.83-.42-.29-1-.19-1.29,.23-.29,.42-.19,1,.23,1.29,.18,.13,10.41,7.2,28.28,14Z"/>
                <path class="cls-7" d="M891.37,973.28s-.07,0-.11,0c-19.92-1.09-39.38-5.2-57.85-12.23h0c-17.97-6.84-28.41-14.05-28.51-14.12-.87-.61-1.08-1.81-.47-2.68,.61-.87,1.82-1.08,2.68-.47,.33,.23,32.99,22.85,84.35,25.65,1.06,.06,1.88,.97,1.82,2.03-.06,1.02-.91,1.82-1.92,1.82Z"/>
              </g>
              <g>
                <path class="cls-2" d="M830.13,977.69c5.09,1.94,31.86,11.61,59.29,11.96,.51,0,.93-.4,.94-.92,0-.51-.4-.93-.92-.94-29.97-.38-59.19-12.04-59.48-12.16-.45-.2-1.01,.04-1.21,.51-.19,.47,.04,1.01,.51,1.21,.03,.01,.32,.13,.86,.33Z"/>
                <path class="cls-7" d="M889.43,990.65h-.02c-27.59-.35-54.52-10.08-59.63-12.02-.51-.19-.81-.31-.87-.34-1-.4-1.48-1.53-1.08-2.51,.19-.48,.59-.87,1.07-1.07,.48-.19,1.01-.19,1.47,.02,.26,.1,29.53,11.7,59.09,12.07,1.06,.02,1.91,.9,1.9,1.95-.01,1.06-.88,1.91-1.93,1.91Z"/>
              </g>
            </g>
            <g>
              <polygon class="cls-2" points="1008.74 897.55 1001.29 965.95 994.92 901.18 1008.74 897.55"/>
              <path class="cls-7" d="M1001.29,966.95h0c-.51,0-.94-.39-.99-.9l-6.37-64.76c-.05-.49,.27-.94,.74-1.07l13.81-3.64c.32-.08,.66,0,.91,.21,.25,.21,.38,.54,.34,.87l-7.44,68.4c-.06,.51-.48,.89-.99,.89Zm-5.29-65.01l5.34,54.31,6.24-57.36-11.58,3.05Z"/>
            </g>
          </g>
          <g>
            <path class="cls-2" d="M916.36,880.13s-38.68-15.31-50.72-18.13c-6.68-1.57-9.27,18.13,8.35,31.1,17.62,12.97,59.85,20.36,68.82,34.94,8.97,14.58,15.29,50.22-5.64,73.95l53.15-23.35-6.19-64.97-67.76-33.54Z"/>
            <path class="cls-7" d="M937.16,1002.99c-.31,0-.61-.15-.81-.41-.28-.38-.25-.9,.06-1.25,20.94-23.73,13.94-59.1,5.54-72.76-4.94-8.03-21.02-14.06-36.58-19.9-11.95-4.48-24.3-9.11-31.98-14.77-13.49-9.92-15.58-23.63-12.75-29.76,1.13-2.45,3.09-3.62,5.22-3.12,11.97,2.81,49.28,17.55,50.86,18.18,.03,0,.05,.02,.08,.03l67.76,33.54c.31,.15,.52,.46,.55,.8l6.19,64.97c.04,.43-.2,.84-.59,1.01l-53.15,23.35c-.13,.06-.27,.08-.4,.08Zm-72.26-140.08c-1.21,0-1.98,1.09-2.44,2.07-2.21,4.79-.93,17.72,12.12,27.31,7.46,5.49,19.68,10.07,31.5,14.5,16.6,6.23,32.29,12.11,37.58,20.72,8.29,13.49,15.26,47.5-3.09,71.88l48.69-21.39-6.07-63.69-67.23-33.27c-1.42-.56-38.88-15.34-50.54-18.07-.18-.04-.35-.06-.51-.06Z"/>
          </g>
        </g>
        <g>
          <g>
            <path class="cls-2" d="M1403.97,522.1h0c-40.68-3.5-77.34,24.5-84.68,64.67l-41.82,236.07-284.04,78.84s-6.67,94.4-.6,94c6.08-.4,368.06-37.96,368.06-37.96l-.44-.73c32.61-5.05,59.8-30.22,65.98-64.36l48.69-277.54c8.3-45.9-24.67-89-71.15-92.99Z"/>
            <path class="cls-7" d="M992.79,996.68c-.33,0-.78-.1-1.2-.53-5.3-5.33,.2-85.43,.84-94.54,.03-.42,.32-.78,.73-.89l283.43-78.67,41.71-235.45c3.59-19.67,14.33-37.19,30.22-49.33,15.89-12.13,35.61-17.87,55.54-16.16l-.09,1,.09-1c22.43,1.93,43.14,13.29,56.82,31.17,13.68,17.88,19.23,40.84,15.22,63l-48.69,277.53c-6.02,33.31-32.27,59.26-65.53,64.97,0,.14-.04,.27-.1,.4-.15,.31-.45,.51-.79,.55-14.78,1.53-362.07,37.56-368.09,37.96-.03,0-.07,0-.1,0Zm1.58-94.23c-2.99,42.51-4.48,88.81-1.44,92.22,10.33-.85,342.64-35.32,366.52-37.8,.01-.1,.04-.2,.09-.3,.14-.3,.42-.51,.75-.56,33.02-5.12,59.2-30.66,65.15-63.55l48.69-277.53c3.91-21.61-1.5-44-14.84-61.43-13.34-17.43-33.53-28.51-55.4-30.39-40.38-3.48-76.33,23.98-83.61,63.85l-41.82,236.06c-.07,.38-.35,.69-.72,.79l-283.36,78.65Z"/>
          </g>
          <g>
            <path class="cls-2" d="M1277.42,822.18l26.47,22.67-26.47-22.67Z"/>
            <path class="cls-7" d="M1303.89,845.85c-.23,0-.46-.08-.65-.24l-26.47-22.67c-.42-.36-.47-.99-.11-1.41,.36-.42,.99-.47,1.41-.11l26.47,22.67c.42,.36,.47,.99,.11,1.41-.2,.23-.48,.35-.76,.35Z"/>
          </g>
        </g>
        <path class="cls-4" d="M1281.01,788.3l165.07,22.63,35.93-192.19c9.05-48.39-23.94-94.6-72.64-101.76h0c-47.27-6.95-91.26,25.63-98.4,72.87l-29.96,198.44Z"/>
      </g>
      <path class="cls-7" d="M2539.19,197.22h-1017.75c-.55,0-1-.45-1-1s.45-1,1-1h1017.75c.55,0,1,.45,1,1s-.45,1-1,1Z"/>
      <g>
        <g>
          <path class="cls-2" d="M1876.69,373.09h314.37c37.2,0,67.4,30.2,67.4,67.4h0c0,37.2-30.2,67.4-67.4,67.4h-314.37c-37.2,0-67.4-30.2-67.4-67.4h0c0-37.2,30.2-67.4,67.4-67.4Z"/>
          <path class="cls-7" d="M2191.06,508.89h-314.37c-37.72,0-68.4-30.69-68.4-68.4s30.69-68.4,68.4-68.4h314.37c37.72,0,68.4,30.69,68.4,68.4s-30.69,68.4-68.4,68.4Zm-314.37-134.81c-36.61,0-66.4,29.79-66.4,66.4s29.79,66.4,66.4,66.4h314.37c36.61,0,66.4-29.79,66.4-66.4s-29.79-66.4-66.4-66.4h-314.37Z"/>
        </g>
        <path class="cls-7" d="M2207.93,441.49h-348.12c-.55,0-1-.45-1-1s.45-1,1-1h348.12c.55,0,1,.45,1,1s-.45,1-1,1Z"/>
      </g>
      <g>
        <g>
          <rect class="cls-2" x="2461.19" y="501.84" width="211.18" height="179.86"/>
          <path class="cls-7" d="M2672.36,682.7h-211.18c-.55,0-1-.45-1-1v-179.86c0-.55,.45-1,1-1h211.18c.55,0,1,.45,1,1v179.86c0,.55-.45,1-1,1Zm-210.18-2h209.18v-177.86h-209.18v177.86Z"/>
        </g>
        <rect class="cls-4" x="2438.04" y="478.69" width="211.18" height="179.86"/>
        <g>
          <path class="cls-2" d="M2537.88,613.62l-8.89-25.24h-34.75l-8.89,25.24h-15.73l33.82-91.25h16.53l33.75,91.25h-15.85Zm-12.74-37.98l-8.64-24.93c-.33-1.08-.81-2.59-1.43-4.54-.62-1.95-1.24-3.96-1.87-6.03-.62-2.07-1.14-3.81-1.55-5.22-.42,1.7-.92,3.6-1.52,5.69s-1.18,4.06-1.74,5.91c-.56,1.84-.99,3.24-1.28,4.2l-8.7,24.93h26.73Z"/>
          <path class="cls-2" d="M2591.21,543.5c8.7,0,15.28,1.93,19.74,5.78s6.68,9.86,6.68,18.03v46.31h-10.38l-2.86-9.76h-.5c-1.95,2.49-3.96,4.55-6.03,6.19-2.07,1.64-4.46,2.85-7.15,3.64-2.69,.79-5.99,1.18-9.88,1.18-4.15,0-7.83-.76-11.06-2.27-3.23-1.51-5.77-3.82-7.62-6.93-1.84-3.11-2.77-7.05-2.77-11.81,0-7.09,2.64-12.41,7.93-15.98,5.29-3.56,13.27-5.53,23.96-5.91l11.87-.44v-3.6c0-4.72-1.1-8.1-3.3-10.13-2.2-2.03-5.3-3.05-9.32-3.05-3.44,0-6.78,.5-10.01,1.49-3.23,.99-6.38,2.2-9.45,3.6l-4.79-10.32c3.4-1.78,7.24-3.23,11.53-4.35,4.29-1.12,8.75-1.68,13.4-1.68Zm11.87,37.23l-8.83,.37c-7.29,.25-12.41,1.48-15.35,3.7-2.94,2.22-4.41,5.27-4.41,9.17,0,3.4,1.01,5.87,3.05,7.43,2.03,1.55,4.7,2.33,8.02,2.33,5.06,0,9.24-1.44,12.56-4.32,3.31-2.88,4.97-7.1,4.97-12.65v-6.03Z"/>
        </g>
      </g>
      <g>
        <path class="cls-4" d="M1699.88,533.2l-111.51-32.6-3.46-20.78c-73.92,19.8-114.1,4.73-114.1,4.73v23.34l-90.09,8.99s-16.37,78.03-39.9,120c-12.75,22.74-20.25,49.06-24.66,71.26-5.43,27.34-3.24,55.64,6.27,81.84,18.47,50.92,47.22,134.8,47.22,134.8l285.31,44.25,54.77-309.71c-36.5-80.9-9.85-126.13-9.85-126.13Z"/>
        <path class="cls-7" d="M1528.65,820.05s-.06,0-.09,0l-178.46-15.32c-.55-.05-.96-.53-.91-1.08,.05-.55,.51-.97,1.08-.91l178.46,15.32c.55,.05,.96,.53,.91,1.08-.04,.52-.48,.91-1,.91Z"/>
        <path class="cls-7" d="M1517.27,517c-29.67,0-46.67-8.09-46.91-8.21-.5-.24-.7-.84-.46-1.34,.24-.5,.84-.7,1.34-.46,.33,.16,34.19,16.22,90.09,2.4,.53-.13,1.08,.19,1.21,.73,.13,.54-.19,1.08-.73,1.21-16.94,4.19-31.9,5.66-44.55,5.66Z"/>
        <path class="cls-7" d="M1478.71,504.91c-.55,0-1-.45-1-1v-17.22c0-.55,.45-1,1-1s1,.45,1,1v17.22c0,.55-.45,1-1,1Z"/>
        <path class="cls-7" d="M1491.21,507.07c-.55,0-1-.45-1-1v-17.22c0-.55,.45-1,1-1s1,.45,1,1v17.22c0,.55-.45,1-1,1Z"/>
        <path class="cls-7" d="M1503.7,508.79c-.55,0-1-.45-1-1v-17.22c0-.55,.45-1,1-1s1,.45,1,1v17.22c0,.55-.45,1-1,1Z"/>
        <path class="cls-7" d="M1516.19,508.79c-.55,0-1-.45-1-1v-17.22c0-.55,.45-1,1-1s1,.45,1,1v17.22c0,.55-.45,1-1,1Z"/>
        <path class="cls-7" d="M1357.87,891.63c-.41,0-.79-.25-.94-.66l-36.9-100.93c-13.08-35.77-12.13-74.8,2.66-109.9l29.18-69.23c.21-.51,.8-.75,1.31-.53,.51,.21,.75,.8,.53,1.31l-29.18,69.22c-14.6,34.63-15.53,73.14-2.63,108.43l36.9,100.93c.19,.52-.08,1.09-.6,1.28-.11,.04-.23,.06-.34,.06Z"/>
      </g>
      <g>
        <g>
          <g>
            <path class="cls-2" d="M1128.79,1380.85c-75.07,171.37-239.41,540.09-239.41,540.09l-119.33-38.3,145.57-584.43c11.04-47.38,70.12-75.56,126.9-61.5h0c63.53,15.72,112.53,84.19,86.27,144.14Z"/>
            <path class="cls-7" d="M889.38,1921.94c-.1,0-.2-.02-.31-.05l-119.33-38.3c-.5-.16-.79-.68-.67-1.19l145.57-584.43c4.62-19.84,18-37.41,37.67-49.46,25.6-15.68,59.41-20.46,90.44-12.78,35.58,8.81,67.63,34.48,83.65,67.02,12.86,26.11,14.03,53.98,3.29,78.49h0c-74.21,169.41-237.77,536.41-239.41,540.1-.16,.37-.53,.59-.91,.59Zm-118.14-39.97l117.59,37.74c8.72-19.57,166.53-373.74,239.04-539.27l.92,.4-.92-.4c10.5-23.96,9.34-51.24-3.25-76.81-15.77-32.02-47.32-57.29-82.34-65.96-30.52-7.56-63.77-2.87-88.92,12.54-19.21,11.77-32.27,28.89-36.77,48.22l-145.35,583.53Z"/>
          </g>
          <path class="cls-7" d="M1684.4,1188.67c-7.9-58.85-52.71-102.6-106.83-113.02-19.28-3.72-39.75-3.18-60.16,2.4l-74.07,20.28-33.29,9.11-230.36,63.07-206.23,56.47c-12.37,4.68-23.46,11.49-32.94,19.91-21.21,18.84-34.33,45.75-35.56,74.86l-133.38,470.05,172.5,56.63,164.14-409.01c147.01-30.48,346.81-75.07,473.23-103.2,22.33-4.97,42.17-15.32,58.38-29.44,27.56-23.97,44.66-58.8,45.72-96.52,.21-7.12-.16-14.34-1.14-21.61Z"/>
          <g>
            <path class="cls-7" d="M816.18,1864.31c-.36-.06,4.63-40.81-43-43.3l-24.44,72.86,67.54-3.28-.11-26.28Z"/>
            <path class="cls-4" d="M538.99,2021.49l.1,25.16,7.07,4.99,372.23-1.49-.21-53.32-7.07-4.99-.44-110.67-148.99-26.56-12.92,39.28-98.32,68.81s-94.43,31.57-97.45,31.58c-2.66,.01-11.46,21.04-13.54,26.12-.29,.71-.44,1.1-.44,1.1Z"/>
            <polygon class="cls-7" points="539.06 2040.6 539.09 2046.64 546.16 2051.64 918.39 2050.14 918.31 2030.02 539.06 2040.6"/>
            <path class="cls-7" d="M538.99,2021.49l.1,25.16,379.28-1.52-.19-48.3-7.07-4.99-371.67,28.56c-.29,.71-.44,1.1-.44,1.1Z"/>
            <path class="cls-7" d="M759.04,1939.44c-.34,0-.67-.17-.86-.49-.14-.23-13.96-23.06-36.94-23.06-.05,0-.1,0-.14,0-.55,0-1-.44-1-1,0-.55,.44-1,1-1,.05,0,.1,0,.15,0,24.14,0,38.52,23.79,38.67,24.04,.28,.48,.12,1.09-.35,1.37-.16,.09-.34,.14-.51,.14Z"/>
            <path class="cls-7" d="M734.78,1953.55c-.31,0-.62-.15-.82-.42-.16-.23-16.45-23.02-35.31-21.47-.56,.05-1.03-.36-1.08-.91-.04-.55,.37-1.03,.92-1.08,20.05-1.65,36.42,21.33,37.11,22.31,.32,.45,.21,1.08-.24,1.39-.17,.12-.38,.18-.57,.18Z"/>
            <path class="cls-7" d="M709.02,1969.32c-.38,0-.75-.22-.91-.59-.1-.23-10.35-22.54-30.19-22.54-.04,0-.06,0-.11,0-.55,0-1-.44-1-1,0-.55,.44-1,1-1h.12c21.16,0,31.91,23.48,32.02,23.72,.23,.5,0,1.1-.5,1.32-.13,.06-.27,.09-.41,.09Z"/>
          </g>
        </g>
        <g>
          <path class="cls-2" d="M1663.88,970.12l-318.04-44.25,318.04,44.25Z"/>
          <path class="cls-7" d="M1663.89,971.12s-.09,0-.14,0l-318.04-44.25c-.55-.08-.93-.58-.85-1.13,.08-.55,.57-.93,1.13-.85l318.04,44.25c.55,.08,.93,.58,.85,1.13-.07,.5-.5,.86-.99,.86Z"/>
        </g>
      </g>
      <g>
        <g>
          <path class="cls-2" d="M1052.49,1246.17c-119.39,144.04-378.99,453.19-378.99,453.19l-93.61-76.81,303.07-495.53c23.67-42.5,75.63-72.34,126.33-43.18h0c56.74,32.62,84.97,111.94,43.2,162.33Z"/>
          <path class="cls-7" d="M673.5,1700.37c-.22,0-.45-.07-.63-.23l-93.61-76.81c-.39-.32-.48-.87-.22-1.29l303.07-495.53c14.29-25.67,38.02-45.23,63.44-52.27,21.64-6,43.86-2.97,64.25,8.75,31.77,18.27,55.51,51.79,61.95,87.48,5.17,28.64-1.4,55.76-18.47,76.36-118.03,142.4-376.4,450.11-378.99,453.2-.2,.24-.48,.36-.77,.36Zm-92.3-78.03l92.18,75.63c14.43-17.19,263.19-313.5,378.35-452.43l.77,.64-.77-.64c16.69-20.14,23.1-46.68,18.04-74.73-6.33-35.12-29.7-68.11-60.97-86.1-19.91-11.45-41.6-14.41-62.71-8.55-24.92,6.91-48.19,26.11-62.25,51.36l-302.63,494.82Z"/>
        </g>
        <g>
          <path class="cls-7" d="M1690.14,1180.43l-41.98-226.75-299.04-43.28s-52.47,108.38-62.22,144.25l-266.96-26.66c-45.26-9.45-91.42,11.49-114.14,51.76h0s-283.19,427.29-283.19,427.29l152.77,94.01,266.34-340.73,94.3,14.74c169.89,24.99,270.3,49.64,413.48,66.37,75.16,8.78,141.83-48.41,144.59-124.04h0c.46-12.75-.93-25.16-3.96-36.95Z"/>
          <path class="cls-2" d="M775.62,1602.36l-154.41-95.02,.57-.86,283.19-427.29c22.98-40.75,69.26-61.74,115.13-52.19l266.07,26.57c10.22-36.35,61.54-142.53,62.06-143.61l.32-.66,300.47,43.49,.13,.71,41.97,226.72c3.1,12.11,4.44,24.62,3.98,37.2-1.32,36.33-17.91,70.73-45.5,94.4-27.58,23.66-64.11,34.81-100.21,30.59-80.72-9.43-149.08-21.6-221.46-34.48-57.97-10.32-117.91-20.99-192.05-31.89l-93.73-14.65-266.53,340.97Zm-151.6-95.64l151.12,93,266.16-340.49,94.88,14.83c74.16,10.91,134.11,21.58,192.1,31.9,72.35,12.88,140.69,25.04,221.34,34.47,35.54,4.15,71.51-6.83,98.67-30.13,27.17-23.3,43.5-57.18,44.8-92.95,.45-12.4-.87-24.74-3.93-36.67v-.07s-41.86-226.05-41.86-226.05l-297.6-43.07c-4.4,9.13-52.62,109.5-61.84,143.42l-.22,.82-.84-.08-267.01-26.67h-.05c-45.03-9.41-90.46,11.19-113.07,51.26l-282.65,426.49Z"/>
        </g>
        <g>
          <path class="cls-7" d="M614.94,1623.89c-.33-.14,13.3-38.85-32.68-51.54l-39.54,65.9,66.67,11.33,5.55-25.69Z"/>
          <path class="cls-4" d="M310.42,1717.74l-5.31,24.59,5.83,6.4,363.83,78.64,11.26-52.12-5.83-6.4,23.38-108.18-139.79-58-21.08,35.58-110.83,46.05s-99.01,10.51-101.96,9.87c-2.6-.56-15.72,18.09-18.84,22.59-.43,.63-.67,.97-.67,.97Z"/>
          <polygon class="cls-7" points="306.39 1736.42 305.11 1742.33 310.94 1748.73 674.77 1827.36 679.02 1807.7 306.39 1736.42"/>
          <path class="cls-7" d="M310.42,1717.74l-5.31,24.59,370.72,80.13,10.2-47.21-5.83-6.4-369.11-52.08c-.43,.63-.67,.97-.67,.97Z"/>
          <path class="cls-7" d="M543.19,1684.99c-.42,0-.81-.27-.95-.69-.09-.26-8.71-25.62-31.25-30.49-.54-.12-.88-.65-.77-1.19,.12-.54,.65-.88,1.19-.77,23.68,5.12,32.64,31.56,32.73,31.82,.17,.52-.11,1.09-.64,1.26-.1,.03-.21,.05-.31,.05Z"/>
          <path class="cls-7" d="M516.47,1693.54c-.39,0-.76-.23-.92-.61-.11-.26-11.1-26.01-29.86-28.56-.55-.07-.93-.58-.86-1.13,.07-.55,.58-.93,1.13-.86,19.91,2.71,30.98,28.67,31.44,29.77,.21,.51-.03,1.09-.54,1.31-.13,.05-.26,.08-.39,.08Z"/>
          <path class="cls-7" d="M487.92,1703.41c-.46,0-.88-.32-.98-.8-.05-.24-5.27-24.32-24.74-28.53-.54-.12-.88-.65-.77-1.19,.12-.54,.65-.88,1.19-.77,20.75,4.49,26.23,29.82,26.28,30.08,.11,.54-.24,1.07-.78,1.18-.07,.01-.14,.02-.2,.02Z"/>
        </g>
      </g>
      <g>
        <g>
          <g>
            <path class="cls-2" d="M1699.88,542.44h0c-40.69-3.34-77.25,24.8-84.44,64.98l-40.37,273.97-296.64,39.88s-.01,.06-.03,.15c-26.24-9.22-79.26-27.99-98.59-35.99-23.18-9.59-49.03,22.37-63.12,36.36-3.09,3.07-4.62,7.41-3.98,11.73,.47,3.18,3.85,4.75,8.48,6.32,.38,.13,.87,.15,1.46,.09-6.04,7.58-4.93,13.54-2.26,16.28,4.04,4.14,10.48,1.93,17.26-1.96,0,0,0,0,0,0-11.05,9.75-3.75,15.82,2.05,16.42,.77,.26,2.07,.11,3.76-.35-.94,1.14-1.47,2.22-1.5,3.2,.54,10.64,7.23,8.88,12.01,8.89,7.92-.2,33.8-6.97,47.82-2.68,1.89,.58,23.86,24.89,49.6,33.97,8.13,2.87,16.99,2.8,25.6,1.17,52.49,.11,347.19-.03,347.19-.03l-.05-.2c37.3-.7,69.93-27.65,76.64-65.56l61.99-313.89c8.13-45.93-16.39-88.9-62.88-92.72Z"/>
            <path class="cls-7" d="M1265.63,1016.98c-5.26,0-10.14-.78-14.57-2.35-20.27-7.15-38.27-23.7-45.96-30.76-1.69-1.55-3.28-3.02-3.67-3.21-9.7-2.96-25.31-.47-36.72,1.36-4.68,.75-8.37,1.34-10.72,1.4-.57,0-1.19,.02-1.81,.05-4.52,.19-10.7,.44-11.22-9.89,.02-.6,.16-1.2,.42-1.81-.76,.08-1.38,.04-1.88-.1-3.2-.36-7.12-2.35-8.25-5.91-.6-1.86-.58-4.6,1.9-8.08-4.69,2-9.88,2.93-13.47-.75-2.82-2.89-4.08-8.77,1.11-16.15-4.46-1.52-8.49-3.21-9.06-7.09-.67-4.55,.92-9.26,4.27-12.58,1.79-1.78,3.8-3.88,5.93-6.1,14.9-15.57,37.43-39.1,58.27-30.47,18.85,7.8,69.26,25.68,98.01,35.79,.03,0,.06-.01,.09-.02l295.89-39.78,40.26-273.23c3.53-19.71,14.19-37.27,30.04-49.46,15.84-12.19,35.53-18.01,55.47-16.37,20.31,1.67,37.33,10.7,49.22,26.12,13.72,17.8,19.03,42.5,14.56,67.77l-61.99,313.91c-6.64,37.52-38.95,65.33-76.96,66.35-.18,.14-.39,.22-.62,.22-2.95,0-294.94,.14-347.09,.03-3.99,.75-7.81,1.12-11.45,1.12Zm-75.57-39.69c4.41,0,8.55,.41,12.03,1.47,.6,.18,1.47,.96,4.37,3.63,7.6,6.98,25.39,23.33,45.27,30.35,7.19,2.54,15.63,2.92,25.08,1.13,.06-.01,.12-.02,.19-.02h0c50.71,.11,330.98-.02,346.53-.03,.17-.13,.37-.2,.58-.2,37.34-.7,69.16-27.92,75.68-64.74l61.99-313.91c4.37-24.7-.79-48.83-14.17-66.18-11.54-14.96-28.07-23.73-47.8-25.35-40.4-3.32-76.24,24.27-83.37,64.16l-40.36,273.94c-.07,.44-.41,.79-.86,.85l-296.16,39.81s-.08,.06-.12,.09c-.25,.15-.57,.18-.84,.08-28.68-10.07-79.63-28.15-98.64-36.01-19.59-8.1-41.54,14.83-56.07,30.01-2.14,2.23-4.16,4.34-5.96,6.14-2.9,2.88-4.28,6.94-3.7,10.87,.37,2.53,3.15,3.94,7.81,5.52,.16,.05,.46,.1,1.03,.04,.41-.04,.79,.16,.98,.51,.19,.35,.16,.79-.09,1.1-5.62,7.05-4.76,12.46-2.33,14.96,3.06,3.14,8.01,2.48,16.05-2.13,.45-.26,1.01-.13,1.31,.28,.3,.42,.24,.99-.15,1.33-4.29,3.79-6.08,7.29-5.17,10.13,.88,2.74,4.07,4.27,6.66,4.54,.07,0,.15,.02,.22,.05,.3,.1,1.12,.19,3.17-.37,.42-.11,.87,.06,1.1,.42,.24,.37,.21,.84-.07,1.18-.81,.98-1.25,1.88-1.28,2.6,.42,8.27,4.66,8.09,9.14,7.9,.64-.03,1.26-.05,1.87-.05,2.19-.06,6-.67,10.42-1.37,7.64-1.22,17.14-2.74,25.66-2.74Z"/>
          </g>
          <g>
            <g>
              <path class="cls-1" d="M1122.66,939.94s31.64-30.67,40.68-33.91c10.59-3.8,46.08,6.64,46.08,6.64l-86.77,27.27Z"/>
              <path class="cls-7" d="M1122.66,940.94c-.26,0-.52-.1-.72-.3-.38-.4-.38-1.03,.02-1.41,1.3-1.26,31.9-30.86,41.04-34.13,10.78-3.86,45.24,6.19,46.7,6.62,.53,.16,.83,.71,.68,1.24-.16,.53-.7,.83-1.24,.68-.35-.1-35.3-10.3-45.46-6.66-8.74,3.13-40.01,33.38-40.32,33.69-.19,.19-.45,.28-.7,.28Z"/>
            </g>
            <g>
              <path class="cls-1" d="M1137.66,954.25s32-22.18,41.04-25.42c10.59-3.8,35.51,5.64,35.51,5.64l-76.55,19.78Z"/>
              <path class="cls-7" d="M1137.66,955.25c-.32,0-.63-.15-.82-.43-.31-.45-.2-1.08,.25-1.39,1.31-.91,32.21-22.29,41.27-25.54,10.82-3.88,35.17,5.25,36.2,5.64,.52,.2,.78,.77,.58,1.29-.2,.52-.77,.78-1.29,.58-.25-.09-24.7-9.26-34.82-5.63-8.81,3.16-40.49,25.08-40.81,25.3-.17,.12-.37,.18-.57,.18Z"/>
            </g>
            <g>
              <path class="cls-1" d="M1142.56,971.64s39.55-17.1,48.59-20.34c10.59-3.8,33.83,6.26,33.83,6.26l-82.42,14.08Z"/>
              <path class="cls-7" d="M1142.56,972.64c-.39,0-.75-.23-.92-.6-.22-.51,.01-1.1,.52-1.31,.4-.17,39.69-17.15,48.65-20.36,10.84-3.89,33.6,5.86,34.56,6.28,.51,.22,.74,.81,.52,1.31-.22,.51-.81,.74-1.32,.52-.23-.1-23-9.85-33.09-6.23-8.91,3.19-48.14,20.15-48.53,20.32-.13,.06-.26,.08-.4,.08Z"/>
            </g>
          </g>
          <g>
            <path class="cls-2" d="M1437.2,899.86c-9.36,1.68-157.23,21.06-157.23,21.06l157.23-21.06Z"/>
            <path class="cls-7" d="M1279.97,921.92c-.5,0-.92-.37-.99-.87-.07-.55,.31-1.05,.86-1.12,1.48-.19,147.96-19.4,157.19-21.06,.55-.1,1.06,.26,1.16,.81s-.26,1.06-.81,1.16c-9.28,1.67-155.8,20.88-157.28,21.07-.04,0-.09,0-.13,0Z"/>
          </g>
        </g>
        <path class="cls-4" d="M1571.31,805.18l165.07,22.63,35.93-192.19c9.05-48.39-23.94-94.6-72.64-101.76h0c-47.27-6.95-91.26,25.63-98.4,72.87l-29.96,198.44Z"/>
        <path class="cls-7" d="M1596.6,809.65s-.09,0-.14,0l-25.3-3.47c-.27-.04-.5-.18-.67-.39-.16-.21-.23-.48-.19-.75l29.96-198.44c.07-.41,6.95-39.15,37.14-60.55,17.96-12.73,40.45-16.9,66.82-12.39,.54,.09,.91,.61,.82,1.15-.09,.54-.6,.91-1.15,.82-36.07-6.17-64.13,3.92-83.39,29.96-14.41,19.49-18.22,41.11-18.26,41.33l-29.8,197.42,24.29,3.33c.55,.08,.93,.58,.86,1.13-.07,.5-.5,.86-.99,.86Z"/>
        <g>
          <path class="cls-2" d="M1575.07,881.4l49.1,18.46-49.1-18.46Z"/>
          <path class="cls-7" d="M1624.17,900.86c-.12,0-.24-.02-.35-.06l-49.1-18.46c-.52-.19-.78-.77-.58-1.29,.19-.52,.77-.78,1.29-.58l49.1,18.46c.52,.19,.78,.77,.58,1.29-.15,.4-.53,.65-.94,.65Z"/>
        </g>
      </g>
      <g>
        <g>
          <g>
            <path class="cls-2" d="M1422.89,1059.12h-376.01v-24.1l376.2,11.86c3.3,.1,5.93,2.81,5.93,6.12h0c0,3.38-2.74,6.12-6.12,6.12Z"/>
            <path class="cls-7" d="M1422.89,1060.12h-376.01c-.55,0-1-.45-1-1v-24.1c0-.27,.11-.53,.3-.72,.2-.19,.48-.29,.73-.28l376.2,11.86c3.87,.12,6.9,3.25,6.9,7.12s-3.19,7.12-7.12,7.12Zm-375.01-2h375.01c2.82,0,5.12-2.3,5.12-5.12s-2.18-5.03-4.96-5.12l-375.17-11.83v22.07Z"/>
          </g>
          <g>
            <path class="cls-2" d="M1194.61,1052.75h-348.49c-6.9,0-12.88-4.63-14.38-11.13l-50.23-217.5c-2.05-8.89,4.95-17.32,14.38-17.32h348.49c6.9,0,12.88,4.63,14.38,11.13l50.23,217.5c2.05,8.89-4.95,17.32-14.38,17.32Z"/>
            <path class="cls-7" d="M1194.61,1053.75h-348.49c-7.42,0-13.74-4.9-15.36-11.91l-50.23-217.5c-1.02-4.42,.03-9.02,2.88-12.61,3-3.78,7.55-5.94,12.47-5.94h348.49c7.42,0,13.74,4.9,15.36,11.91l50.23,217.5c1.02,4.42-.03,9.02-2.88,12.61-3,3.78-7.55,5.94-12.47,5.94Zm-398.72-245.95c-4.31,0-8.29,1.89-10.91,5.19-2.47,3.11-3.38,7.09-2.5,10.91l50.23,217.5c1.41,6.1,6.92,10.36,13.41,10.36h348.49c4.31,0,8.29-1.89,10.91-5.19,2.47-3.11,3.38-7.09,2.5-10.91l-50.23-217.5c-1.41-6.1-6.92-10.36-13.41-10.36h-348.49Z"/>
          </g>
          <g>
            <path class="cls-2" d="M1177.39,1059.12h-348.49c-6.9,0-12.88-4.79-14.38-11.53l-50.23-225.28c-2.05-9.21,4.95-17.94,14.38-17.94h348.49c6.9,0,12.88,4.79,14.38,11.53l50.23,225.28c2.05,9.21-4.95,17.94-14.38,17.94Z"/>
            <path class="cls-7" d="M1177.39,1060.12h-348.49c-7.43,0-13.74-5.06-15.36-12.31l-50.23-225.28c-1.04-4.69,.08-9.52,3.08-13.27,3-3.75,7.48-5.89,12.28-5.89h348.49c7.43,0,13.74,5.06,15.36,12.31l50.23,225.28c1.04,4.69-.08,9.52-3.08,13.27-3,3.75-7.48,5.89-12.28,5.89Zm-398.72-254.75c-4.19,0-8.1,1.88-10.72,5.14-2.62,3.27-3.6,7.49-2.69,11.58l50.23,225.28c1.41,6.33,6.92,10.75,13.41,10.75h348.49c4.19,0,8.1-1.88,10.72-5.15,2.62-3.27,3.6-7.49,2.69-11.58l-50.23-225.28c-1.41-6.33-6.92-10.75-13.41-10.75h-348.49Z"/>
          </g>
        </g>
        <g>
          <ellipse class="cls-7" cx="967.85" cy="931.75" rx="12.91" ry="19.36" transform="translate(-144.49 178.37) rotate(-9.8)"/>
          <path class="cls-2" d="M969.68,951.95c-7,0-13.76-7.58-15.53-17.84-.91-5.29-.39-10.51,1.47-14.71,1.92-4.33,5.04-7.08,8.77-7.72,7.54-1.31,15.26,6.63,17.17,17.7h0c1.91,11.07-2.68,21.13-10.24,22.44-.55,.09-1.09,.14-1.64,.14Zm-3.62-38.42c-.44,0-.89,.04-1.34,.11-3.06,.53-5.64,2.86-7.29,6.56-1.7,3.84-2.17,8.66-1.32,13.56,1.72,9.98,8.38,17.19,14.86,16.07,6.47-1.12,10.33-10.15,8.61-20.12-1.61-9.29-7.5-16.18-13.53-16.18Z"/>
        </g>
      </g>
      <g>
        <rect class="cls-4" y="312.8" width="477.31" height="327.82"/>
        <g>
          <g>
            <rect class="cls-2" x="58.02" y="136.04" width="655.12" height="449.47"/>
            <path class="cls-7" d="M713.14,586.51H58.02c-.55,0-1-.45-1-1V136.04c0-.55,.45-1,1-1H713.14c.55,0,1,.45,1,1v449.47c0,.55-.45,1-1,1Zm-654.12-2H712.14V137.04H59.02v447.47Z"/>
          </g>
          <path class="cls-4" d="M341.48,209.5H108.7c-5.21,0-9.44-4.23-9.44-9.44h0c0-5.21,4.23-9.44,9.44-9.44h232.78c5.21,0,9.44,4.23,9.44,9.44h0c0,5.21-4.23,9.44-9.44,9.44Z"/>
          <g>
            <path class="cls-2" d="M582.44,209.5h-111.67c-5.21,0-9.44-4.23-9.44-9.44h0c0-5.21,4.23-9.44,9.44-9.44h111.67c5.21,0,9.44,4.23,9.44,9.44h0c0,5.21-4.23,9.44-9.44,9.44Z"/>
            <path class="cls-7" d="M582.44,210.5h-111.67c-5.75,0-10.44-4.68-10.44-10.44s4.68-10.44,10.44-10.44h111.67c5.75,0,10.44,4.68,10.44,10.44s-4.68,10.44-10.44,10.44Zm-111.67-18.87c-4.65,0-8.44,3.78-8.44,8.44s3.79,8.44,8.44,8.44h111.67c4.65,0,8.44-3.78,8.44-8.44s-3.79-8.44-8.44-8.44h-111.67Z"/>
          </g>
          <path class="cls-4" d="M341.48,266.12H108.7c-5.21,0-9.44-4.23-9.44-9.44h0c0-5.21,4.23-9.44,9.44-9.44h232.78c5.21,0,9.44,4.23,9.44,9.44h0c0,5.21-4.23,9.44-9.44,9.44Z"/>
          <g>
            <path class="cls-2" d="M506.69,266.12h-111.67c-5.21,0-9.44-4.23-9.44-9.44h0c0-5.21,4.23-9.44,9.44-9.44h111.67c5.21,0,9.44,4.23,9.44,9.44h0c0,5.21-4.23,9.44-9.44,9.44Z"/>
            <path class="cls-7" d="M506.69,267.12h-111.67c-5.75,0-10.44-4.68-10.44-10.44s4.68-10.44,10.44-10.44h111.67c5.75,0,10.44,4.68,10.44,10.44s-4.68,10.44-10.44,10.44Zm-111.67-18.87c-4.65,0-8.44,3.78-8.44,8.44s3.78,8.44,8.44,8.44h111.67c4.65,0,8.44-3.78,8.44-8.44s-3.78-8.44-8.44-8.44h-111.67Z"/>
          </g>
          <g>
            <path class="cls-2" d="M589.52,266.12h-35.13c-5.21,0-9.44-4.23-9.44-9.44h0c0-5.21,4.22-9.44,9.44-9.44h35.13c5.21,0,9.44,4.23,9.44,9.44h0c0,5.21-4.23,9.44-9.44,9.44Z"/>
            <path class="cls-7" d="M589.52,267.12h-35.13c-5.75,0-10.44-4.68-10.44-10.44s4.68-10.44,10.44-10.44h35.13c5.75,0,10.44,4.68,10.44,10.44s-4.68,10.44-10.44,10.44Zm-35.13-18.87c-4.65,0-8.44,3.78-8.44,8.44s3.79,8.44,8.44,8.44h35.13c4.65,0,8.44-3.78,8.44-8.44s-3.78-8.44-8.44-8.44h-35.13Z"/>
          </g>
          <g>
            <path class="cls-2" d="M230.85,441.23H119.18c-5.21,0-9.44-4.22-9.44-9.44h0c0-5.21,4.23-9.44,9.44-9.44h111.67c5.21,0,9.44,4.22,9.44,9.44h0c0,5.21-4.23,9.44-9.44,9.44Z"/>
            <path class="cls-7" d="M230.85,442.23H119.18c-5.75,0-10.44-4.68-10.44-10.44s4.68-10.44,10.44-10.44h111.67c5.75,0,10.44,4.68,10.44,10.44s-4.68,10.44-10.44,10.44Zm-111.67-18.87c-4.65,0-8.44,3.78-8.44,8.44s3.79,8.44,8.44,8.44h111.67c4.65,0,8.44-3.78,8.44-8.44s-3.79-8.44-8.44-8.44H119.18Z"/>
          </g>
          <g>
            <path class="cls-2" d="M666.07,441.23H342c-5.21,0-9.44-4.22-9.44-9.44h0c0-5.21,4.23-9.44,9.44-9.44h324.07c5.21,0,9.44,4.22,9.44,9.44h0c0,5.21-4.23,9.44-9.44,9.44Z"/>
            <path class="cls-7" d="M666.06,442.23H342c-5.75,0-10.44-4.68-10.44-10.44s4.68-10.44,10.44-10.44h324.07c5.75,0,10.44,4.68,10.44,10.44s-4.68,10.44-10.44,10.44Zm-324.07-18.87c-4.65,0-8.44,3.78-8.44,8.44s3.78,8.44,8.44,8.44h324.07c4.65,0,8.44-3.78,8.44-8.44s-3.79-8.44-8.44-8.44H342Z"/>
          </g>
          <rect class="cls-4" x="215.39" y="476.71" width="130.54" height="18.87" rx="9.44" ry="9.44"/>
          <g>
            <path class="cls-2" d="M442.14,322.23H209.36c-5.21,0-9.44-4.22-9.44-9.44h0c0-5.21,4.23-9.44,9.44-9.44h232.78c5.21,0,9.44,4.23,9.44,9.44h0c0,5.21-4.22,9.44-9.44,9.44Z"/>
            <path class="cls-7" d="M442.13,323.23H209.36c-5.75,0-10.44-4.68-10.44-10.44s4.68-10.44,10.44-10.44h232.78c5.75,0,10.44,4.68,10.44,10.44s-4.68,10.44-10.44,10.44Zm-232.78-18.87c-4.65,0-8.44,3.78-8.44,8.44s3.78,8.44,8.44,8.44h232.78c4.65,0,8.44-3.78,8.44-8.44s-3.78-8.44-8.44-8.44H209.36Z"/>
          </g>
          <g>
            <rect class="cls-2" x="479.69" y="470.92" width="130.54" height="18.87" rx="9.44" ry="9.44"/>
            <path class="cls-7" d="M600.79,490.79h-111.67c-5.75,0-10.44-4.68-10.44-10.44s4.68-10.44,10.44-10.44h111.67c5.75,0,10.44,4.68,10.44,10.44s-4.68,10.44-10.44,10.44Zm-111.67-18.87c-4.65,0-8.44,3.78-8.44,8.44s3.78,8.44,8.44,8.44h111.67c4.65,0,8.44-3.78,8.44-8.44s-3.79-8.44-8.44-8.44h-111.67Z"/>
          </g>
          <rect class="cls-4" x="109.75" y="527.04" width="341.82" height="18.87" rx="9.44" ry="9.44"/>
          <path class="cls-4" d="M607.35,322.23h-111.67c-5.21,0-9.44-4.22-9.44-9.44h0c0-5.21,4.23-9.44,9.44-9.44h111.67c5.21,0,9.44,4.23,9.44,9.44h0c0,5.21-4.23,9.44-9.44,9.44Z"/>
          <g>
            <rect class="cls-2" x="109.75" y="360.77" width="251.65" height="18.87" rx="9.44" ry="9.44"/>
            <path class="cls-7" d="M351.96,380.65H119.18c-5.75,0-10.44-4.68-10.44-10.44s4.68-10.44,10.44-10.44h232.78c5.75,0,10.44,4.68,10.44,10.44s-4.68,10.44-10.44,10.44Zm-232.78-18.87c-4.65,0-8.44,3.78-8.44,8.44s3.79,8.44,8.44,8.44h232.78c4.65,0,8.44-3.78,8.44-8.44s-3.79-8.44-8.44-8.44H119.18Z"/>
          </g>
          <rect class="cls-4" x="396.07" y="360.77" width="130.54" height="18.87" rx="9.44" ry="9.44"/>
          <g>
            <rect class="cls-2" x="544.96" y="360.77" width="130.54" height="18.87" rx="9.44" ry="9.44"/>
            <path class="cls-7" d="M666.06,380.65h-111.67c-5.75,0-10.44-4.68-10.44-10.44s4.68-10.44,10.44-10.44h111.67c5.75,0,10.44,4.68,10.44,10.44s-4.68,10.44-10.44,10.44Zm-111.67-18.87c-4.65,0-8.44,3.78-8.44,8.44s3.79,8.44,8.44,8.44h111.67c4.65,0,8.44-3.78,8.44-8.44s-3.79-8.44-8.44-8.44h-111.67Z"/>
          </g>
        </g>
      </g>
      <g>
        <g>
          <rect class="cls-2" x="591.5" y="524.44" width="351.92" height="188.55"/>
          <path class="cls-7" d="M943.42,714h-351.92c-.55,0-1-.45-1-1v-188.55c0-.55,.45-1,1-1h351.92c.55,0,1,.45,1,1v188.55c0,.55-.45,1-1,1Zm-350.92-2h349.92v-186.55h-349.92v186.55Z"/>
        </g>
        <rect class="cls-4" x="591.5" y="524.44" width="351.92" height="38.05"/>
        <g>
          <g>
            <g>
              <path class="cls-2" d="M715.2,602.5l-60.63,31.17,60.63-31.17Z"/>
              <path class="cls-7" d="M654.57,634.66c-.36,0-.71-.2-.89-.54-.25-.49-.06-1.09,.43-1.35l60.63-31.17c.49-.25,1.09-.06,1.35,.43,.25,.49,.06,1.09-.43,1.35l-60.63,31.17c-.15,.08-.3,.11-.46,.11Z"/>
            </g>
            <g>
              <path class="cls-2" d="M654.57,633.66l60.63,31.17-60.63-31.17Z"/>
              <path class="cls-7" d="M715.2,665.83c-.15,0-.31-.04-.46-.11l-60.63-31.17c-.49-.25-.68-.85-.43-1.35,.25-.49,.85-.68,1.35-.43l60.63,31.17c.49,.25,.68,.86,.43,1.35-.18,.35-.53,.54-.89,.54Z"/>
            </g>
          </g>
          <g>
            <g>
              <path class="cls-2" d="M819.72,602.5l60.63,31.17-60.63-31.17Z"/>
              <path class="cls-7" d="M880.35,634.66c-.15,0-.31-.04-.46-.11l-60.63-31.17c-.49-.25-.68-.85-.43-1.35,.25-.49,.85-.69,1.35-.43l60.63,31.17c.49,.25,.68,.86,.43,1.35-.18,.35-.53,.54-.89,.54Z"/>
            </g>
            <g>
              <path class="cls-2" d="M880.35,633.66l-60.63,31.17,60.63-31.17Z"/>
              <path class="cls-7" d="M819.72,665.83c-.36,0-.71-.2-.89-.54-.25-.49-.06-1.09,.43-1.35l60.63-31.17c.49-.25,1.09-.06,1.35,.43,.25,.49,.06,1.09-.43,1.35l-60.63,31.17c-.15,.08-.3,.11-.46,.11Z"/>
            </g>
          </g>
          <g>
            <path class="cls-2" d="M775.28,602.5l-32.96,66.73,32.96-66.73Z"/>
            <path class="cls-7" d="M742.33,670.23c-.15,0-.3-.03-.44-.1-.5-.24-.7-.84-.45-1.34l32.96-66.73c.24-.49,.85-.7,1.34-.45,.5,.24,.7,.84,.45,1.34l-32.96,66.73c-.17,.35-.53,.56-.9,.56Z"/>
          </g>
          <g>
            <path class="cls-2" d="M798.01,602.5l-32.96,66.73,32.96-66.73Z"/>
            <path class="cls-7" d="M765.05,670.23c-.15,0-.3-.03-.44-.1-.5-.24-.7-.84-.45-1.34l32.96-66.73c.24-.49,.84-.7,1.34-.45,.5,.24,.7,.84,.45,1.34l-32.96,66.73c-.17,.35-.53,.56-.9,.56Z"/>
          </g>
        </g>
        <path class="cls-7" d="M943.42,563.5h-351.92c-.55,0-1-.45-1-1s.45-1,1-1h351.92c.55,0,1,.45,1,1s-.45,1-1,1Z"/>
      </g>
      <g>
        <g>
          <rect class="cls-2" x="948.07" y="1" width="420.66" height="100.66" rx="50.33" ry="50.33"/>
          <path class="cls-7" d="M1318.4,102.66h-320c-28.3,0-51.33-23.03-51.33-51.33S970.09,0,998.4,0h320c28.3,0,51.33,23.03,51.33,51.33s-23.03,51.33-51.33,51.33ZM998.4,2c-27.2,0-49.33,22.13-49.33,49.33s22.13,49.33,49.33,49.33h320c27.2,0,49.33-22.13,49.33-49.33s-22.13-49.33-49.33-49.33h-320Z"/>
        </g>
        <g>
          <g>
            <path class="cls-2" d="M1032.4,29.03l-42.36,42.16,42.36-42.16Z"/>
            <path class="cls-7" d="M990.04,72.19c-.26,0-.51-.1-.71-.29-.39-.39-.39-1.02,0-1.41l42.36-42.16c.39-.39,1.02-.39,1.41,0,.39,.39,.39,1.02,0,1.41l-42.36,42.16c-.19,.19-.45,.29-.71,.29Z"/>
          </g>
          <g>
            <path class="cls-2" d="M1032.3,71.29l-42.16-42.36,42.16,42.36Z"/>
            <path class="cls-7" d="M1032.3,72.29c-.26,0-.51-.1-.71-.29l-42.16-42.36c-.39-.39-.39-1.02,0-1.41,.39-.39,1.02-.39,1.41,0l42.16,42.36c.39,.39,.39,1.02,0,1.41-.19,.19-.45,.29-.71,.29Z"/>
          </g>
        </g>
      </g>
      <g>
        <g>
          <rect class="cls-2" x="2438.04" y="176.43" width="357.65" height="248.08" rx="25.85" ry="25.85"/>
          <path class="cls-7" d="M2769.83,425.52h-305.94c-14.81,0-26.85-12.05-26.85-26.85V202.29c0-14.81,12.05-26.85,26.85-26.85h305.94c14.81,0,26.85,12.05,26.85,26.85v196.38c0,14.81-12.05,26.85-26.85,26.85Zm-305.94-248.09c-13.7,0-24.85,11.15-24.85,24.85v196.38c0,13.7,11.15,24.85,24.85,24.85h305.94c13.7,0,24.85-11.15,24.85-24.85V202.29c0-13.7-11.15-24.85-24.85-24.85h-305.94Z"/>
        </g>
        <circle class="cls-7" cx="2515.13" cy="238.85" r="37.7" transform="translate(1704.81 2631.82) rotate(-76.72)"/>
        <g>
          <path class="cls-7" d="M2759.13,234.33h-174.44c-3.56,0-6.45-2.89-6.45-6.45h0c0-3.56,2.89-6.45,6.45-6.45h174.44c3.56,0,6.45,2.89,6.45,6.45h0c0,3.56-2.89,6.45-6.45,6.45Z"/>
          <path class="cls-7" d="M2665.46,259.79h-80.77c-3.56,0-6.45-2.89-6.45-6.45h0c0-3.56,2.89-6.45,6.45-6.45h80.77c3.56,0,6.45,2.89,6.45,6.45h0c0,3.56-2.89,6.45-6.45,6.45Z"/>
        </g>
        <circle class="cls-7" cx="2731.45" cy="361.58" r="37.7" transform="translate(-22.65 442.2) rotate(-9.22)"/>
        <g>
          <path class="cls-7" d="M2487.45,357.06h174.44c3.56,0,6.45-2.89,6.45-6.45h0c0-3.56-2.89-6.45-6.45-6.45h-174.44c-3.56,0-6.45,2.89-6.45,6.45h0c0,3.56,2.89,6.45,6.45,6.45Z"/>
          <rect class="cls-7" x="2574.67" y="369.62" width="93.67" height="12.9" rx="6.45" ry="6.45" transform="translate(5243.01 752.15) rotate(-180)"/>
        </g>
        <path class="cls-7" d="M2795.68,301.48h-357.65c-.55,0-1-.45-1-1s.45-1,1-1h357.65c.55,0,1,.45,1,1s-.45,1-1,1Z"/>
      </g>
      <circle class="cls-4" cx="2287.82" cy="1991.83" r="59.67" transform="translate(-140 3810.39) rotate(-77.88)"/>
      <path class="cls-7" d="M2793.81,2052.51H.87c-.48,0-.87-.39-.87-.87s.39-.87,.87-.87H2793.81c.48,0,.87,.39,.87,.87s-.39,.87-.87,.87Z"/>
    </g>
  </g>
</svg>